%TF.GenerationSoftware,KiCad,Pcbnew,8.0.7*%
%TF.CreationDate,2025-06-28T19:36:39+10:00*%
%TF.ProjectId,fidget,66696467-6574-42e6-9b69-6361645f7063,rev?*%
%TF.SameCoordinates,Original*%
%TF.FileFunction,Legend,Bot*%
%TF.FilePolarity,Positive*%
%FSLAX46Y46*%
G04 Gerber Fmt 4.6, Leading zero omitted, Abs format (unit mm)*
G04 Created by KiCad (PCBNEW 8.0.7) date 2025-06-28 19:36:39*
%MOMM*%
%LPD*%
G01*
G04 APERTURE LIST*
G04 Aperture macros list*
%AMRoundRect*
0 Rectangle with rounded corners*
0 $1 Rounding radius*
0 $2 $3 $4 $5 $6 $7 $8 $9 X,Y pos of 4 corners*
0 Add a 4 corners polygon primitive as box body*
4,1,4,$2,$3,$4,$5,$6,$7,$8,$9,$2,$3,0*
0 Add four circle primitives for the rounded corners*
1,1,$1+$1,$2,$3*
1,1,$1+$1,$4,$5*
1,1,$1+$1,$6,$7*
1,1,$1+$1,$8,$9*
0 Add four rect primitives between the rounded corners*
20,1,$1+$1,$2,$3,$4,$5,0*
20,1,$1+$1,$4,$5,$6,$7,0*
20,1,$1+$1,$6,$7,$8,$9,0*
20,1,$1+$1,$8,$9,$2,$3,0*%
G04 Aperture macros list end*
%ADD10C,0.600000*%
%ADD11C,1.750000*%
%ADD12C,0.200000*%
%ADD13C,1.700000*%
%ADD14C,4.000000*%
%ADD15C,2.200000*%
%ADD16C,1.400000*%
%ADD17O,1.400000X1.400000*%
%ADD18C,2.019000*%
%ADD19RoundRect,0.102000X-0.907500X-0.907500X0.907500X-0.907500X0.907500X0.907500X-0.907500X0.907500X0*%
%ADD20C,1.524000*%
G04 APERTURE END LIST*
D10*
X132698342Y-104976692D02*
X134126914Y-105976692D01*
X132698342Y-106690978D02*
X135698342Y-106690978D01*
X135698342Y-106690978D02*
X135698342Y-105548121D01*
X135698342Y-105548121D02*
X135555485Y-105262406D01*
X135555485Y-105262406D02*
X135412628Y-105119549D01*
X135412628Y-105119549D02*
X135126914Y-104976692D01*
X135126914Y-104976692D02*
X134698342Y-104976692D01*
X134698342Y-104976692D02*
X134412628Y-105119549D01*
X134412628Y-105119549D02*
X134269771Y-105262406D01*
X134269771Y-105262406D02*
X134126914Y-105548121D01*
X134126914Y-105548121D02*
X134126914Y-106690978D01*
X132841200Y-102548121D02*
X132698342Y-102833835D01*
X132698342Y-102833835D02*
X132698342Y-103405264D01*
X132698342Y-103405264D02*
X132841200Y-103690978D01*
X132841200Y-103690978D02*
X133126914Y-103833835D01*
X133126914Y-103833835D02*
X134269771Y-103833835D01*
X134269771Y-103833835D02*
X134555485Y-103690978D01*
X134555485Y-103690978D02*
X134698342Y-103405264D01*
X134698342Y-103405264D02*
X134698342Y-102833835D01*
X134698342Y-102833835D02*
X134555485Y-102548121D01*
X134555485Y-102548121D02*
X134269771Y-102405264D01*
X134269771Y-102405264D02*
X133984057Y-102405264D01*
X133984057Y-102405264D02*
X133698342Y-103833835D01*
X132698342Y-99833835D02*
X134269771Y-99833835D01*
X134269771Y-99833835D02*
X134555485Y-99976692D01*
X134555485Y-99976692D02*
X134698342Y-100262406D01*
X134698342Y-100262406D02*
X134698342Y-100833835D01*
X134698342Y-100833835D02*
X134555485Y-101119549D01*
X132841200Y-99833835D02*
X132698342Y-100119549D01*
X132698342Y-100119549D02*
X132698342Y-100833835D01*
X132698342Y-100833835D02*
X132841200Y-101119549D01*
X132841200Y-101119549D02*
X133126914Y-101262406D01*
X133126914Y-101262406D02*
X133412628Y-101262406D01*
X133412628Y-101262406D02*
X133698342Y-101119549D01*
X133698342Y-101119549D02*
X133841200Y-100833835D01*
X133841200Y-100833835D02*
X133841200Y-100119549D01*
X133841200Y-100119549D02*
X133984057Y-99833835D01*
X132841200Y-97119549D02*
X132698342Y-97405263D01*
X132698342Y-97405263D02*
X132698342Y-97976691D01*
X132698342Y-97976691D02*
X132841200Y-98262406D01*
X132841200Y-98262406D02*
X132984057Y-98405263D01*
X132984057Y-98405263D02*
X133269771Y-98548120D01*
X133269771Y-98548120D02*
X134126914Y-98548120D01*
X134126914Y-98548120D02*
X134412628Y-98405263D01*
X134412628Y-98405263D02*
X134555485Y-98262406D01*
X134555485Y-98262406D02*
X134698342Y-97976691D01*
X134698342Y-97976691D02*
X134698342Y-97405263D01*
X134698342Y-97405263D02*
X134555485Y-97119549D01*
X134698342Y-96262405D02*
X134698342Y-95119548D01*
X135698342Y-95833834D02*
X133126914Y-95833834D01*
X133126914Y-95833834D02*
X132841200Y-95690977D01*
X132841200Y-95690977D02*
X132698342Y-95405262D01*
X132698342Y-95405262D02*
X132698342Y-95119548D01*
X132698342Y-94119548D02*
X134698342Y-94119548D01*
X135698342Y-94119548D02*
X135555485Y-94262405D01*
X135555485Y-94262405D02*
X135412628Y-94119548D01*
X135412628Y-94119548D02*
X135555485Y-93976691D01*
X135555485Y-93976691D02*
X135698342Y-94119548D01*
X135698342Y-94119548D02*
X135412628Y-94119548D01*
X132698342Y-92262405D02*
X132841200Y-92548120D01*
X132841200Y-92548120D02*
X132984057Y-92690977D01*
X132984057Y-92690977D02*
X133269771Y-92833834D01*
X133269771Y-92833834D02*
X134126914Y-92833834D01*
X134126914Y-92833834D02*
X134412628Y-92690977D01*
X134412628Y-92690977D02*
X134555485Y-92548120D01*
X134555485Y-92548120D02*
X134698342Y-92262405D01*
X134698342Y-92262405D02*
X134698342Y-91833834D01*
X134698342Y-91833834D02*
X134555485Y-91548120D01*
X134555485Y-91548120D02*
X134412628Y-91405263D01*
X134412628Y-91405263D02*
X134126914Y-91262405D01*
X134126914Y-91262405D02*
X133269771Y-91262405D01*
X133269771Y-91262405D02*
X132984057Y-91405263D01*
X132984057Y-91405263D02*
X132841200Y-91548120D01*
X132841200Y-91548120D02*
X132698342Y-91833834D01*
X132698342Y-91833834D02*
X132698342Y-92262405D01*
X134698342Y-89976691D02*
X132698342Y-89976691D01*
X134412628Y-89976691D02*
X134555485Y-89833834D01*
X134555485Y-89833834D02*
X134698342Y-89548119D01*
X134698342Y-89548119D02*
X134698342Y-89119548D01*
X134698342Y-89119548D02*
X134555485Y-88833834D01*
X134555485Y-88833834D02*
X134269771Y-88690977D01*
X134269771Y-88690977D02*
X132698342Y-88690977D01*
X135698342Y-85405262D02*
X135698342Y-83690977D01*
X132698342Y-84548119D02*
X135698342Y-84548119D01*
X132841200Y-81548120D02*
X132698342Y-81833834D01*
X132698342Y-81833834D02*
X132698342Y-82405263D01*
X132698342Y-82405263D02*
X132841200Y-82690977D01*
X132841200Y-82690977D02*
X133126914Y-82833834D01*
X133126914Y-82833834D02*
X134269771Y-82833834D01*
X134269771Y-82833834D02*
X134555485Y-82690977D01*
X134555485Y-82690977D02*
X134698342Y-82405263D01*
X134698342Y-82405263D02*
X134698342Y-81833834D01*
X134698342Y-81833834D02*
X134555485Y-81548120D01*
X134555485Y-81548120D02*
X134269771Y-81405263D01*
X134269771Y-81405263D02*
X133984057Y-81405263D01*
X133984057Y-81405263D02*
X133698342Y-82833834D01*
X132841200Y-80262405D02*
X132698342Y-79976691D01*
X132698342Y-79976691D02*
X132698342Y-79405262D01*
X132698342Y-79405262D02*
X132841200Y-79119548D01*
X132841200Y-79119548D02*
X133126914Y-78976691D01*
X133126914Y-78976691D02*
X133269771Y-78976691D01*
X133269771Y-78976691D02*
X133555485Y-79119548D01*
X133555485Y-79119548D02*
X133698342Y-79405262D01*
X133698342Y-79405262D02*
X133698342Y-79833834D01*
X133698342Y-79833834D02*
X133841200Y-80119548D01*
X133841200Y-80119548D02*
X134126914Y-80262405D01*
X134126914Y-80262405D02*
X134269771Y-80262405D01*
X134269771Y-80262405D02*
X134555485Y-80119548D01*
X134555485Y-80119548D02*
X134698342Y-79833834D01*
X134698342Y-79833834D02*
X134698342Y-79405262D01*
X134698342Y-79405262D02*
X134555485Y-79119548D01*
X134698342Y-78119548D02*
X134698342Y-76976691D01*
X135698342Y-77690977D02*
X133126914Y-77690977D01*
X133126914Y-77690977D02*
X132841200Y-77548120D01*
X132841200Y-77548120D02*
X132698342Y-77262405D01*
X132698342Y-77262405D02*
X132698342Y-76976691D01*
X132841200Y-74833834D02*
X132698342Y-75119548D01*
X132698342Y-75119548D02*
X132698342Y-75690977D01*
X132698342Y-75690977D02*
X132841200Y-75976691D01*
X132841200Y-75976691D02*
X133126914Y-76119548D01*
X133126914Y-76119548D02*
X134269771Y-76119548D01*
X134269771Y-76119548D02*
X134555485Y-75976691D01*
X134555485Y-75976691D02*
X134698342Y-75690977D01*
X134698342Y-75690977D02*
X134698342Y-75119548D01*
X134698342Y-75119548D02*
X134555485Y-74833834D01*
X134555485Y-74833834D02*
X134269771Y-74690977D01*
X134269771Y-74690977D02*
X133984057Y-74690977D01*
X133984057Y-74690977D02*
X133698342Y-76119548D01*
X132698342Y-73405262D02*
X134698342Y-73405262D01*
X134126914Y-73405262D02*
X134412628Y-73262405D01*
X134412628Y-73262405D02*
X134555485Y-73119548D01*
X134555485Y-73119548D02*
X134698342Y-72833833D01*
X134698342Y-72833833D02*
X134698342Y-72548119D01*
X128598342Y-106690978D02*
X131598342Y-106690978D01*
X131598342Y-106690978D02*
X131598342Y-105976692D01*
X131598342Y-105976692D02*
X131455485Y-105548121D01*
X131455485Y-105548121D02*
X131169771Y-105262406D01*
X131169771Y-105262406D02*
X130884057Y-105119549D01*
X130884057Y-105119549D02*
X130312628Y-104976692D01*
X130312628Y-104976692D02*
X129884057Y-104976692D01*
X129884057Y-104976692D02*
X129312628Y-105119549D01*
X129312628Y-105119549D02*
X129026914Y-105262406D01*
X129026914Y-105262406D02*
X128741200Y-105548121D01*
X128741200Y-105548121D02*
X128598342Y-105976692D01*
X128598342Y-105976692D02*
X128598342Y-106690978D01*
X130598342Y-102405264D02*
X128598342Y-102405264D01*
X130598342Y-103690978D02*
X129026914Y-103690978D01*
X129026914Y-103690978D02*
X128741200Y-103548121D01*
X128741200Y-103548121D02*
X128598342Y-103262406D01*
X128598342Y-103262406D02*
X128598342Y-102833835D01*
X128598342Y-102833835D02*
X128741200Y-102548121D01*
X128741200Y-102548121D02*
X128884057Y-102405264D01*
X128741200Y-99833835D02*
X128598342Y-100119549D01*
X128598342Y-100119549D02*
X128598342Y-100690978D01*
X128598342Y-100690978D02*
X128741200Y-100976692D01*
X128741200Y-100976692D02*
X129026914Y-101119549D01*
X129026914Y-101119549D02*
X130169771Y-101119549D01*
X130169771Y-101119549D02*
X130455485Y-100976692D01*
X130455485Y-100976692D02*
X130598342Y-100690978D01*
X130598342Y-100690978D02*
X130598342Y-100119549D01*
X130598342Y-100119549D02*
X130455485Y-99833835D01*
X130455485Y-99833835D02*
X130169771Y-99690978D01*
X130169771Y-99690978D02*
X129884057Y-99690978D01*
X129884057Y-99690978D02*
X129598342Y-101119549D01*
X128598342Y-97976691D02*
X128741200Y-98262406D01*
X128741200Y-98262406D02*
X129026914Y-98405263D01*
X129026914Y-98405263D02*
X131598342Y-98405263D01*
D11*
X169014332Y-102015351D02*
X169347665Y-102682018D01*
X169347665Y-102682018D02*
X169347665Y-103682018D01*
X169347665Y-103682018D02*
X169014332Y-104682018D01*
X169014332Y-104682018D02*
X168347665Y-105348685D01*
X168347665Y-105348685D02*
X167680999Y-105682018D01*
X167680999Y-105682018D02*
X166347665Y-106015351D01*
X166347665Y-106015351D02*
X165347665Y-106015351D01*
X165347665Y-106015351D02*
X164014332Y-105682018D01*
X164014332Y-105682018D02*
X163347665Y-105348685D01*
X163347665Y-105348685D02*
X162680999Y-104682018D01*
X162680999Y-104682018D02*
X162347665Y-103682018D01*
X162347665Y-103682018D02*
X162347665Y-103015351D01*
X162347665Y-103015351D02*
X162680999Y-102015351D01*
X162680999Y-102015351D02*
X163014332Y-101682018D01*
X163014332Y-101682018D02*
X165347665Y-101682018D01*
X165347665Y-101682018D02*
X165347665Y-103015351D01*
X164347665Y-99015351D02*
X164347665Y-95682018D01*
X162347665Y-99682018D02*
X169347665Y-97348685D01*
X169347665Y-97348685D02*
X162347665Y-95015351D01*
X162347665Y-92682018D02*
X169347665Y-92682018D01*
X169347665Y-92682018D02*
X164347665Y-90348685D01*
X164347665Y-90348685D02*
X169347665Y-88015351D01*
X169347665Y-88015351D02*
X162347665Y-88015351D01*
X166014332Y-84682018D02*
X166014332Y-82348685D01*
X162347665Y-81348685D02*
X162347665Y-84682018D01*
X162347665Y-84682018D02*
X169347665Y-84682018D01*
X169347665Y-84682018D02*
X169347665Y-81348685D01*
X162680999Y-78682018D02*
X162347665Y-77682018D01*
X162347665Y-77682018D02*
X162347665Y-76015352D01*
X162347665Y-76015352D02*
X162680999Y-75348685D01*
X162680999Y-75348685D02*
X163014332Y-75015352D01*
X163014332Y-75015352D02*
X163680999Y-74682018D01*
X163680999Y-74682018D02*
X164347665Y-74682018D01*
X164347665Y-74682018D02*
X165014332Y-75015352D01*
X165014332Y-75015352D02*
X165347665Y-75348685D01*
X165347665Y-75348685D02*
X165680999Y-76015352D01*
X165680999Y-76015352D02*
X166014332Y-77348685D01*
X166014332Y-77348685D02*
X166347665Y-78015352D01*
X166347665Y-78015352D02*
X166680999Y-78348685D01*
X166680999Y-78348685D02*
X167347665Y-78682018D01*
X167347665Y-78682018D02*
X168014332Y-78682018D01*
X168014332Y-78682018D02*
X168680999Y-78348685D01*
X168680999Y-78348685D02*
X169014332Y-78015352D01*
X169014332Y-78015352D02*
X169347665Y-77348685D01*
X169347665Y-77348685D02*
X169347665Y-75682018D01*
X169347665Y-75682018D02*
X169014332Y-74682018D01*
D12*
X107319335Y-105601755D02*
X106509811Y-105601755D01*
X106509811Y-105601755D02*
X106414573Y-105649374D01*
X106414573Y-105649374D02*
X106366954Y-105696993D01*
X106366954Y-105696993D02*
X106319335Y-105792231D01*
X106319335Y-105792231D02*
X106319335Y-105935088D01*
X106319335Y-105935088D02*
X106366954Y-106030326D01*
X106700288Y-105601755D02*
X106652668Y-105696993D01*
X106652668Y-105696993D02*
X106652668Y-105887469D01*
X106652668Y-105887469D02*
X106700288Y-105982707D01*
X106700288Y-105982707D02*
X106747907Y-106030326D01*
X106747907Y-106030326D02*
X106843145Y-106077945D01*
X106843145Y-106077945D02*
X107128859Y-106077945D01*
X107128859Y-106077945D02*
X107224097Y-106030326D01*
X107224097Y-106030326D02*
X107271716Y-105982707D01*
X107271716Y-105982707D02*
X107319335Y-105887469D01*
X107319335Y-105887469D02*
X107319335Y-105696993D01*
X107319335Y-105696993D02*
X107271716Y-105601755D01*
X106652668Y-104982707D02*
X106700288Y-105077945D01*
X106700288Y-105077945D02*
X106747907Y-105125564D01*
X106747907Y-105125564D02*
X106843145Y-105173183D01*
X106843145Y-105173183D02*
X107128859Y-105173183D01*
X107128859Y-105173183D02*
X107224097Y-105125564D01*
X107224097Y-105125564D02*
X107271716Y-105077945D01*
X107271716Y-105077945D02*
X107319335Y-104982707D01*
X107319335Y-104982707D02*
X107319335Y-104839850D01*
X107319335Y-104839850D02*
X107271716Y-104744612D01*
X107271716Y-104744612D02*
X107224097Y-104696993D01*
X107224097Y-104696993D02*
X107128859Y-104649374D01*
X107128859Y-104649374D02*
X106843145Y-104649374D01*
X106843145Y-104649374D02*
X106747907Y-104696993D01*
X106747907Y-104696993D02*
X106700288Y-104744612D01*
X106700288Y-104744612D02*
X106652668Y-104839850D01*
X106652668Y-104839850D02*
X106652668Y-104982707D01*
X107319335Y-103601754D02*
X107319335Y-103220802D01*
X107652668Y-103458897D02*
X106795526Y-103458897D01*
X106795526Y-103458897D02*
X106700288Y-103411278D01*
X106700288Y-103411278D02*
X106652668Y-103316040D01*
X106652668Y-103316040D02*
X106652668Y-103220802D01*
X106652668Y-102744611D02*
X106700288Y-102839849D01*
X106700288Y-102839849D02*
X106747907Y-102887468D01*
X106747907Y-102887468D02*
X106843145Y-102935087D01*
X106843145Y-102935087D02*
X107128859Y-102935087D01*
X107128859Y-102935087D02*
X107224097Y-102887468D01*
X107224097Y-102887468D02*
X107271716Y-102839849D01*
X107271716Y-102839849D02*
X107319335Y-102744611D01*
X107319335Y-102744611D02*
X107319335Y-102601754D01*
X107319335Y-102601754D02*
X107271716Y-102506516D01*
X107271716Y-102506516D02*
X107224097Y-102458897D01*
X107224097Y-102458897D02*
X107128859Y-102411278D01*
X107128859Y-102411278D02*
X106843145Y-102411278D01*
X106843145Y-102411278D02*
X106747907Y-102458897D01*
X106747907Y-102458897D02*
X106700288Y-102506516D01*
X106700288Y-102506516D02*
X106652668Y-102601754D01*
X106652668Y-102601754D02*
X106652668Y-102744611D01*
X105042724Y-106030326D02*
X106042724Y-106030326D01*
X105042724Y-105601755D02*
X105566534Y-105601755D01*
X105566534Y-105601755D02*
X105661772Y-105649374D01*
X105661772Y-105649374D02*
X105709391Y-105744612D01*
X105709391Y-105744612D02*
X105709391Y-105887469D01*
X105709391Y-105887469D02*
X105661772Y-105982707D01*
X105661772Y-105982707D02*
X105614153Y-106030326D01*
X105709391Y-105268421D02*
X105709391Y-104887469D01*
X106042724Y-105125564D02*
X105185582Y-105125564D01*
X105185582Y-105125564D02*
X105090344Y-105077945D01*
X105090344Y-105077945D02*
X105042724Y-104982707D01*
X105042724Y-104982707D02*
X105042724Y-104887469D01*
X105709391Y-104696992D02*
X105709391Y-104316040D01*
X106042724Y-104554135D02*
X105185582Y-104554135D01*
X105185582Y-104554135D02*
X105090344Y-104506516D01*
X105090344Y-104506516D02*
X105042724Y-104411278D01*
X105042724Y-104411278D02*
X105042724Y-104316040D01*
X105709391Y-103982706D02*
X104709391Y-103982706D01*
X105661772Y-103982706D02*
X105709391Y-103887468D01*
X105709391Y-103887468D02*
X105709391Y-103696992D01*
X105709391Y-103696992D02*
X105661772Y-103601754D01*
X105661772Y-103601754D02*
X105614153Y-103554135D01*
X105614153Y-103554135D02*
X105518915Y-103506516D01*
X105518915Y-103506516D02*
X105233201Y-103506516D01*
X105233201Y-103506516D02*
X105137963Y-103554135D01*
X105137963Y-103554135D02*
X105090344Y-103601754D01*
X105090344Y-103601754D02*
X105042724Y-103696992D01*
X105042724Y-103696992D02*
X105042724Y-103887468D01*
X105042724Y-103887468D02*
X105090344Y-103982706D01*
X105090344Y-103125563D02*
X105042724Y-103030325D01*
X105042724Y-103030325D02*
X105042724Y-102839849D01*
X105042724Y-102839849D02*
X105090344Y-102744611D01*
X105090344Y-102744611D02*
X105185582Y-102696992D01*
X105185582Y-102696992D02*
X105233201Y-102696992D01*
X105233201Y-102696992D02*
X105328439Y-102744611D01*
X105328439Y-102744611D02*
X105376058Y-102839849D01*
X105376058Y-102839849D02*
X105376058Y-102982706D01*
X105376058Y-102982706D02*
X105423677Y-103077944D01*
X105423677Y-103077944D02*
X105518915Y-103125563D01*
X105518915Y-103125563D02*
X105566534Y-103125563D01*
X105566534Y-103125563D02*
X105661772Y-103077944D01*
X105661772Y-103077944D02*
X105709391Y-102982706D01*
X105709391Y-102982706D02*
X105709391Y-102839849D01*
X105709391Y-102839849D02*
X105661772Y-102744611D01*
X105137963Y-102268420D02*
X105090344Y-102220801D01*
X105090344Y-102220801D02*
X105042724Y-102268420D01*
X105042724Y-102268420D02*
X105090344Y-102316039D01*
X105090344Y-102316039D02*
X105137963Y-102268420D01*
X105137963Y-102268420D02*
X105042724Y-102268420D01*
X105661772Y-102268420D02*
X105614153Y-102220801D01*
X105614153Y-102220801D02*
X105566534Y-102268420D01*
X105566534Y-102268420D02*
X105614153Y-102316039D01*
X105614153Y-102316039D02*
X105661772Y-102268420D01*
X105661772Y-102268420D02*
X105566534Y-102268420D01*
X106090344Y-101077945D02*
X104804629Y-101935087D01*
X106090344Y-100030326D02*
X104804629Y-100887468D01*
X105709391Y-99268421D02*
X104899867Y-99268421D01*
X104899867Y-99268421D02*
X104804629Y-99316040D01*
X104804629Y-99316040D02*
X104757010Y-99363659D01*
X104757010Y-99363659D02*
X104709391Y-99458897D01*
X104709391Y-99458897D02*
X104709391Y-99601754D01*
X104709391Y-99601754D02*
X104757010Y-99696992D01*
X105090344Y-99268421D02*
X105042724Y-99363659D01*
X105042724Y-99363659D02*
X105042724Y-99554135D01*
X105042724Y-99554135D02*
X105090344Y-99649373D01*
X105090344Y-99649373D02*
X105137963Y-99696992D01*
X105137963Y-99696992D02*
X105233201Y-99744611D01*
X105233201Y-99744611D02*
X105518915Y-99744611D01*
X105518915Y-99744611D02*
X105614153Y-99696992D01*
X105614153Y-99696992D02*
X105661772Y-99649373D01*
X105661772Y-99649373D02*
X105709391Y-99554135D01*
X105709391Y-99554135D02*
X105709391Y-99363659D01*
X105709391Y-99363659D02*
X105661772Y-99268421D01*
X105042724Y-98792230D02*
X105709391Y-98792230D01*
X106042724Y-98792230D02*
X105995105Y-98839849D01*
X105995105Y-98839849D02*
X105947486Y-98792230D01*
X105947486Y-98792230D02*
X105995105Y-98744611D01*
X105995105Y-98744611D02*
X106042724Y-98792230D01*
X106042724Y-98792230D02*
X105947486Y-98792230D01*
X105709391Y-98458897D02*
X105709391Y-98077945D01*
X106042724Y-98316040D02*
X105185582Y-98316040D01*
X105185582Y-98316040D02*
X105090344Y-98268421D01*
X105090344Y-98268421D02*
X105042724Y-98173183D01*
X105042724Y-98173183D02*
X105042724Y-98077945D01*
X105042724Y-97744611D02*
X106042724Y-97744611D01*
X105042724Y-97316040D02*
X105566534Y-97316040D01*
X105566534Y-97316040D02*
X105661772Y-97363659D01*
X105661772Y-97363659D02*
X105709391Y-97458897D01*
X105709391Y-97458897D02*
X105709391Y-97601754D01*
X105709391Y-97601754D02*
X105661772Y-97696992D01*
X105661772Y-97696992D02*
X105614153Y-97744611D01*
X105709391Y-96411278D02*
X105042724Y-96411278D01*
X105709391Y-96839849D02*
X105185582Y-96839849D01*
X105185582Y-96839849D02*
X105090344Y-96792230D01*
X105090344Y-96792230D02*
X105042724Y-96696992D01*
X105042724Y-96696992D02*
X105042724Y-96554135D01*
X105042724Y-96554135D02*
X105090344Y-96458897D01*
X105090344Y-96458897D02*
X105137963Y-96411278D01*
X105042724Y-95935087D02*
X106042724Y-95935087D01*
X105661772Y-95935087D02*
X105709391Y-95839849D01*
X105709391Y-95839849D02*
X105709391Y-95649373D01*
X105709391Y-95649373D02*
X105661772Y-95554135D01*
X105661772Y-95554135D02*
X105614153Y-95506516D01*
X105614153Y-95506516D02*
X105518915Y-95458897D01*
X105518915Y-95458897D02*
X105233201Y-95458897D01*
X105233201Y-95458897D02*
X105137963Y-95506516D01*
X105137963Y-95506516D02*
X105090344Y-95554135D01*
X105090344Y-95554135D02*
X105042724Y-95649373D01*
X105042724Y-95649373D02*
X105042724Y-95839849D01*
X105042724Y-95839849D02*
X105090344Y-95935087D01*
X105137963Y-95030325D02*
X105090344Y-94982706D01*
X105090344Y-94982706D02*
X105042724Y-95030325D01*
X105042724Y-95030325D02*
X105090344Y-95077944D01*
X105090344Y-95077944D02*
X105137963Y-95030325D01*
X105137963Y-95030325D02*
X105042724Y-95030325D01*
X105090344Y-94125564D02*
X105042724Y-94220802D01*
X105042724Y-94220802D02*
X105042724Y-94411278D01*
X105042724Y-94411278D02*
X105090344Y-94506516D01*
X105090344Y-94506516D02*
X105137963Y-94554135D01*
X105137963Y-94554135D02*
X105233201Y-94601754D01*
X105233201Y-94601754D02*
X105518915Y-94601754D01*
X105518915Y-94601754D02*
X105614153Y-94554135D01*
X105614153Y-94554135D02*
X105661772Y-94506516D01*
X105661772Y-94506516D02*
X105709391Y-94411278D01*
X105709391Y-94411278D02*
X105709391Y-94220802D01*
X105709391Y-94220802D02*
X105661772Y-94125564D01*
X105042724Y-93554135D02*
X105090344Y-93649373D01*
X105090344Y-93649373D02*
X105137963Y-93696992D01*
X105137963Y-93696992D02*
X105233201Y-93744611D01*
X105233201Y-93744611D02*
X105518915Y-93744611D01*
X105518915Y-93744611D02*
X105614153Y-93696992D01*
X105614153Y-93696992D02*
X105661772Y-93649373D01*
X105661772Y-93649373D02*
X105709391Y-93554135D01*
X105709391Y-93554135D02*
X105709391Y-93411278D01*
X105709391Y-93411278D02*
X105661772Y-93316040D01*
X105661772Y-93316040D02*
X105614153Y-93268421D01*
X105614153Y-93268421D02*
X105518915Y-93220802D01*
X105518915Y-93220802D02*
X105233201Y-93220802D01*
X105233201Y-93220802D02*
X105137963Y-93268421D01*
X105137963Y-93268421D02*
X105090344Y-93316040D01*
X105090344Y-93316040D02*
X105042724Y-93411278D01*
X105042724Y-93411278D02*
X105042724Y-93554135D01*
X105042724Y-92792230D02*
X105709391Y-92792230D01*
X105614153Y-92792230D02*
X105661772Y-92744611D01*
X105661772Y-92744611D02*
X105709391Y-92649373D01*
X105709391Y-92649373D02*
X105709391Y-92506516D01*
X105709391Y-92506516D02*
X105661772Y-92411278D01*
X105661772Y-92411278D02*
X105566534Y-92363659D01*
X105566534Y-92363659D02*
X105042724Y-92363659D01*
X105566534Y-92363659D02*
X105661772Y-92316040D01*
X105661772Y-92316040D02*
X105709391Y-92220802D01*
X105709391Y-92220802D02*
X105709391Y-92077945D01*
X105709391Y-92077945D02*
X105661772Y-91982706D01*
X105661772Y-91982706D02*
X105566534Y-91935087D01*
X105566534Y-91935087D02*
X105042724Y-91935087D01*
X106090344Y-90744612D02*
X104804629Y-91601754D01*
X105042724Y-90411278D02*
X106042724Y-90411278D01*
X106042724Y-90411278D02*
X106042724Y-90173183D01*
X106042724Y-90173183D02*
X105995105Y-90030326D01*
X105995105Y-90030326D02*
X105899867Y-89935088D01*
X105899867Y-89935088D02*
X105804629Y-89887469D01*
X105804629Y-89887469D02*
X105614153Y-89839850D01*
X105614153Y-89839850D02*
X105471296Y-89839850D01*
X105471296Y-89839850D02*
X105280820Y-89887469D01*
X105280820Y-89887469D02*
X105185582Y-89935088D01*
X105185582Y-89935088D02*
X105090344Y-90030326D01*
X105090344Y-90030326D02*
X105042724Y-90173183D01*
X105042724Y-90173183D02*
X105042724Y-90411278D01*
X105042724Y-88982707D02*
X105566534Y-88982707D01*
X105566534Y-88982707D02*
X105661772Y-89030326D01*
X105661772Y-89030326D02*
X105709391Y-89125564D01*
X105709391Y-89125564D02*
X105709391Y-89316040D01*
X105709391Y-89316040D02*
X105661772Y-89411278D01*
X105090344Y-88982707D02*
X105042724Y-89077945D01*
X105042724Y-89077945D02*
X105042724Y-89316040D01*
X105042724Y-89316040D02*
X105090344Y-89411278D01*
X105090344Y-89411278D02*
X105185582Y-89458897D01*
X105185582Y-89458897D02*
X105280820Y-89458897D01*
X105280820Y-89458897D02*
X105376058Y-89411278D01*
X105376058Y-89411278D02*
X105423677Y-89316040D01*
X105423677Y-89316040D02*
X105423677Y-89077945D01*
X105423677Y-89077945D02*
X105471296Y-88982707D01*
X105566534Y-88173183D02*
X105518915Y-88030326D01*
X105518915Y-88030326D02*
X105471296Y-87982707D01*
X105471296Y-87982707D02*
X105376058Y-87935088D01*
X105376058Y-87935088D02*
X105233201Y-87935088D01*
X105233201Y-87935088D02*
X105137963Y-87982707D01*
X105137963Y-87982707D02*
X105090344Y-88030326D01*
X105090344Y-88030326D02*
X105042724Y-88125564D01*
X105042724Y-88125564D02*
X105042724Y-88506516D01*
X105042724Y-88506516D02*
X106042724Y-88506516D01*
X106042724Y-88506516D02*
X106042724Y-88173183D01*
X106042724Y-88173183D02*
X105995105Y-88077945D01*
X105995105Y-88077945D02*
X105947486Y-88030326D01*
X105947486Y-88030326D02*
X105852248Y-87982707D01*
X105852248Y-87982707D02*
X105757010Y-87982707D01*
X105757010Y-87982707D02*
X105661772Y-88030326D01*
X105661772Y-88030326D02*
X105614153Y-88077945D01*
X105614153Y-88077945D02*
X105566534Y-88173183D01*
X105566534Y-88173183D02*
X105566534Y-88506516D01*
X105042724Y-87363659D02*
X105090344Y-87458897D01*
X105090344Y-87458897D02*
X105185582Y-87506516D01*
X105185582Y-87506516D02*
X106042724Y-87506516D01*
X105042724Y-86839849D02*
X105090344Y-86935087D01*
X105090344Y-86935087D02*
X105137963Y-86982706D01*
X105137963Y-86982706D02*
X105233201Y-87030325D01*
X105233201Y-87030325D02*
X105518915Y-87030325D01*
X105518915Y-87030325D02*
X105614153Y-86982706D01*
X105614153Y-86982706D02*
X105661772Y-86935087D01*
X105661772Y-86935087D02*
X105709391Y-86839849D01*
X105709391Y-86839849D02*
X105709391Y-86696992D01*
X105709391Y-86696992D02*
X105661772Y-86601754D01*
X105661772Y-86601754D02*
X105614153Y-86554135D01*
X105614153Y-86554135D02*
X105518915Y-86506516D01*
X105518915Y-86506516D02*
X105233201Y-86506516D01*
X105233201Y-86506516D02*
X105137963Y-86554135D01*
X105137963Y-86554135D02*
X105090344Y-86601754D01*
X105090344Y-86601754D02*
X105042724Y-86696992D01*
X105042724Y-86696992D02*
X105042724Y-86839849D01*
X105709391Y-86173182D02*
X105042724Y-85982706D01*
X105042724Y-85982706D02*
X105518915Y-85792230D01*
X105518915Y-85792230D02*
X105042724Y-85601754D01*
X105042724Y-85601754D02*
X105709391Y-85411278D01*
X105090344Y-84649373D02*
X105042724Y-84744611D01*
X105042724Y-84744611D02*
X105042724Y-84935087D01*
X105042724Y-84935087D02*
X105090344Y-85030325D01*
X105090344Y-85030325D02*
X105185582Y-85077944D01*
X105185582Y-85077944D02*
X105566534Y-85077944D01*
X105566534Y-85077944D02*
X105661772Y-85030325D01*
X105661772Y-85030325D02*
X105709391Y-84935087D01*
X105709391Y-84935087D02*
X105709391Y-84744611D01*
X105709391Y-84744611D02*
X105661772Y-84649373D01*
X105661772Y-84649373D02*
X105566534Y-84601754D01*
X105566534Y-84601754D02*
X105471296Y-84601754D01*
X105471296Y-84601754D02*
X105376058Y-85077944D01*
X105042724Y-84173182D02*
X105709391Y-84173182D01*
X105518915Y-84173182D02*
X105614153Y-84125563D01*
X105614153Y-84125563D02*
X105661772Y-84077944D01*
X105661772Y-84077944D02*
X105709391Y-83982706D01*
X105709391Y-83982706D02*
X105709391Y-83887468D01*
X106090344Y-82839849D02*
X104804629Y-83696991D01*
X105709391Y-82649372D02*
X105709391Y-82268420D01*
X106042724Y-82506515D02*
X105185582Y-82506515D01*
X105185582Y-82506515D02*
X105090344Y-82458896D01*
X105090344Y-82458896D02*
X105042724Y-82363658D01*
X105042724Y-82363658D02*
X105042724Y-82268420D01*
X105042724Y-81935086D02*
X105709391Y-81935086D01*
X105518915Y-81935086D02*
X105614153Y-81887467D01*
X105614153Y-81887467D02*
X105661772Y-81839848D01*
X105661772Y-81839848D02*
X105709391Y-81744610D01*
X105709391Y-81744610D02*
X105709391Y-81649372D01*
X105090344Y-80935086D02*
X105042724Y-81030324D01*
X105042724Y-81030324D02*
X105042724Y-81220800D01*
X105042724Y-81220800D02*
X105090344Y-81316038D01*
X105090344Y-81316038D02*
X105185582Y-81363657D01*
X105185582Y-81363657D02*
X105566534Y-81363657D01*
X105566534Y-81363657D02*
X105661772Y-81316038D01*
X105661772Y-81316038D02*
X105709391Y-81220800D01*
X105709391Y-81220800D02*
X105709391Y-81030324D01*
X105709391Y-81030324D02*
X105661772Y-80935086D01*
X105661772Y-80935086D02*
X105566534Y-80887467D01*
X105566534Y-80887467D02*
X105471296Y-80887467D01*
X105471296Y-80887467D02*
X105376058Y-81363657D01*
X105090344Y-80077943D02*
X105042724Y-80173181D01*
X105042724Y-80173181D02*
X105042724Y-80363657D01*
X105042724Y-80363657D02*
X105090344Y-80458895D01*
X105090344Y-80458895D02*
X105185582Y-80506514D01*
X105185582Y-80506514D02*
X105566534Y-80506514D01*
X105566534Y-80506514D02*
X105661772Y-80458895D01*
X105661772Y-80458895D02*
X105709391Y-80363657D01*
X105709391Y-80363657D02*
X105709391Y-80173181D01*
X105709391Y-80173181D02*
X105661772Y-80077943D01*
X105661772Y-80077943D02*
X105566534Y-80030324D01*
X105566534Y-80030324D02*
X105471296Y-80030324D01*
X105471296Y-80030324D02*
X105376058Y-80506514D01*
X105042724Y-79601752D02*
X106042724Y-79601752D01*
X105661772Y-79601752D02*
X105709391Y-79506514D01*
X105709391Y-79506514D02*
X105709391Y-79316038D01*
X105709391Y-79316038D02*
X105661772Y-79220800D01*
X105661772Y-79220800D02*
X105614153Y-79173181D01*
X105614153Y-79173181D02*
X105518915Y-79125562D01*
X105518915Y-79125562D02*
X105233201Y-79125562D01*
X105233201Y-79125562D02*
X105137963Y-79173181D01*
X105137963Y-79173181D02*
X105090344Y-79220800D01*
X105090344Y-79220800D02*
X105042724Y-79316038D01*
X105042724Y-79316038D02*
X105042724Y-79506514D01*
X105042724Y-79506514D02*
X105090344Y-79601752D01*
X105042724Y-78554133D02*
X105090344Y-78649371D01*
X105090344Y-78649371D02*
X105137963Y-78696990D01*
X105137963Y-78696990D02*
X105233201Y-78744609D01*
X105233201Y-78744609D02*
X105518915Y-78744609D01*
X105518915Y-78744609D02*
X105614153Y-78696990D01*
X105614153Y-78696990D02*
X105661772Y-78649371D01*
X105661772Y-78649371D02*
X105709391Y-78554133D01*
X105709391Y-78554133D02*
X105709391Y-78411276D01*
X105709391Y-78411276D02*
X105661772Y-78316038D01*
X105661772Y-78316038D02*
X105614153Y-78268419D01*
X105614153Y-78268419D02*
X105518915Y-78220800D01*
X105518915Y-78220800D02*
X105233201Y-78220800D01*
X105233201Y-78220800D02*
X105137963Y-78268419D01*
X105137963Y-78268419D02*
X105090344Y-78316038D01*
X105090344Y-78316038D02*
X105042724Y-78411276D01*
X105042724Y-78411276D02*
X105042724Y-78554133D01*
X105042724Y-77363657D02*
X105566534Y-77363657D01*
X105566534Y-77363657D02*
X105661772Y-77411276D01*
X105661772Y-77411276D02*
X105709391Y-77506514D01*
X105709391Y-77506514D02*
X105709391Y-77696990D01*
X105709391Y-77696990D02*
X105661772Y-77792228D01*
X105090344Y-77363657D02*
X105042724Y-77458895D01*
X105042724Y-77458895D02*
X105042724Y-77696990D01*
X105042724Y-77696990D02*
X105090344Y-77792228D01*
X105090344Y-77792228D02*
X105185582Y-77839847D01*
X105185582Y-77839847D02*
X105280820Y-77839847D01*
X105280820Y-77839847D02*
X105376058Y-77792228D01*
X105376058Y-77792228D02*
X105423677Y-77696990D01*
X105423677Y-77696990D02*
X105423677Y-77458895D01*
X105423677Y-77458895D02*
X105471296Y-77363657D01*
X105042724Y-76887466D02*
X105709391Y-76887466D01*
X105518915Y-76887466D02*
X105614153Y-76839847D01*
X105614153Y-76839847D02*
X105661772Y-76792228D01*
X105661772Y-76792228D02*
X105709391Y-76696990D01*
X105709391Y-76696990D02*
X105709391Y-76601752D01*
X105042724Y-75839847D02*
X106042724Y-75839847D01*
X105090344Y-75839847D02*
X105042724Y-75935085D01*
X105042724Y-75935085D02*
X105042724Y-76125561D01*
X105042724Y-76125561D02*
X105090344Y-76220799D01*
X105090344Y-76220799D02*
X105137963Y-76268418D01*
X105137963Y-76268418D02*
X105233201Y-76316037D01*
X105233201Y-76316037D02*
X105518915Y-76316037D01*
X105518915Y-76316037D02*
X105614153Y-76268418D01*
X105614153Y-76268418D02*
X105661772Y-76220799D01*
X105661772Y-76220799D02*
X105709391Y-76125561D01*
X105709391Y-76125561D02*
X105709391Y-75935085D01*
X105709391Y-75935085D02*
X105661772Y-75839847D01*
X104099447Y-106173183D02*
X104099447Y-105792231D01*
X104432780Y-106030326D02*
X103575638Y-106030326D01*
X103575638Y-106030326D02*
X103480400Y-105982707D01*
X103480400Y-105982707D02*
X103432780Y-105887469D01*
X103432780Y-105887469D02*
X103432780Y-105792231D01*
X103432780Y-105316040D02*
X103480400Y-105411278D01*
X103480400Y-105411278D02*
X103528019Y-105458897D01*
X103528019Y-105458897D02*
X103623257Y-105506516D01*
X103623257Y-105506516D02*
X103908971Y-105506516D01*
X103908971Y-105506516D02*
X104004209Y-105458897D01*
X104004209Y-105458897D02*
X104051828Y-105411278D01*
X104051828Y-105411278D02*
X104099447Y-105316040D01*
X104099447Y-105316040D02*
X104099447Y-105173183D01*
X104099447Y-105173183D02*
X104051828Y-105077945D01*
X104051828Y-105077945D02*
X104004209Y-105030326D01*
X104004209Y-105030326D02*
X103908971Y-104982707D01*
X103908971Y-104982707D02*
X103623257Y-104982707D01*
X103623257Y-104982707D02*
X103528019Y-105030326D01*
X103528019Y-105030326D02*
X103480400Y-105077945D01*
X103480400Y-105077945D02*
X103432780Y-105173183D01*
X103432780Y-105173183D02*
X103432780Y-105316040D01*
X104099447Y-103887468D02*
X103432780Y-103649373D01*
X103432780Y-103649373D02*
X104099447Y-103411278D01*
X103432780Y-103030325D02*
X104099447Y-103030325D01*
X104432780Y-103030325D02*
X104385161Y-103077944D01*
X104385161Y-103077944D02*
X104337542Y-103030325D01*
X104337542Y-103030325D02*
X104385161Y-102982706D01*
X104385161Y-102982706D02*
X104432780Y-103030325D01*
X104432780Y-103030325D02*
X104337542Y-103030325D01*
X103480400Y-102173183D02*
X103432780Y-102268421D01*
X103432780Y-102268421D02*
X103432780Y-102458897D01*
X103432780Y-102458897D02*
X103480400Y-102554135D01*
X103480400Y-102554135D02*
X103575638Y-102601754D01*
X103575638Y-102601754D02*
X103956590Y-102601754D01*
X103956590Y-102601754D02*
X104051828Y-102554135D01*
X104051828Y-102554135D02*
X104099447Y-102458897D01*
X104099447Y-102458897D02*
X104099447Y-102268421D01*
X104099447Y-102268421D02*
X104051828Y-102173183D01*
X104051828Y-102173183D02*
X103956590Y-102125564D01*
X103956590Y-102125564D02*
X103861352Y-102125564D01*
X103861352Y-102125564D02*
X103766114Y-102601754D01*
X104099447Y-101792230D02*
X103432780Y-101601754D01*
X103432780Y-101601754D02*
X103908971Y-101411278D01*
X103908971Y-101411278D02*
X103432780Y-101220802D01*
X103432780Y-101220802D02*
X104099447Y-101030326D01*
X103432780Y-99887468D02*
X104099447Y-99887468D01*
X104432780Y-99887468D02*
X104385161Y-99935087D01*
X104385161Y-99935087D02*
X104337542Y-99887468D01*
X104337542Y-99887468D02*
X104385161Y-99839849D01*
X104385161Y-99839849D02*
X104432780Y-99887468D01*
X104432780Y-99887468D02*
X104337542Y-99887468D01*
X104099447Y-99411278D02*
X103432780Y-99411278D01*
X104004209Y-99411278D02*
X104051828Y-99363659D01*
X104051828Y-99363659D02*
X104099447Y-99268421D01*
X104099447Y-99268421D02*
X104099447Y-99125564D01*
X104099447Y-99125564D02*
X104051828Y-99030326D01*
X104051828Y-99030326D02*
X103956590Y-98982707D01*
X103956590Y-98982707D02*
X103432780Y-98982707D01*
X103480400Y-98554135D02*
X103432780Y-98458897D01*
X103432780Y-98458897D02*
X103432780Y-98268421D01*
X103432780Y-98268421D02*
X103480400Y-98173183D01*
X103480400Y-98173183D02*
X103575638Y-98125564D01*
X103575638Y-98125564D02*
X103623257Y-98125564D01*
X103623257Y-98125564D02*
X103718495Y-98173183D01*
X103718495Y-98173183D02*
X103766114Y-98268421D01*
X103766114Y-98268421D02*
X103766114Y-98411278D01*
X103766114Y-98411278D02*
X103813733Y-98506516D01*
X103813733Y-98506516D02*
X103908971Y-98554135D01*
X103908971Y-98554135D02*
X103956590Y-98554135D01*
X103956590Y-98554135D02*
X104051828Y-98506516D01*
X104051828Y-98506516D02*
X104099447Y-98411278D01*
X104099447Y-98411278D02*
X104099447Y-98268421D01*
X104099447Y-98268421D02*
X104051828Y-98173183D01*
X104099447Y-97839849D02*
X104099447Y-97458897D01*
X104432780Y-97696992D02*
X103575638Y-97696992D01*
X103575638Y-97696992D02*
X103480400Y-97649373D01*
X103480400Y-97649373D02*
X103432780Y-97554135D01*
X103432780Y-97554135D02*
X103432780Y-97458897D01*
X103432780Y-97125563D02*
X104099447Y-97125563D01*
X103908971Y-97125563D02*
X104004209Y-97077944D01*
X104004209Y-97077944D02*
X104051828Y-97030325D01*
X104051828Y-97030325D02*
X104099447Y-96935087D01*
X104099447Y-96935087D02*
X104099447Y-96839849D01*
X104099447Y-96077944D02*
X103432780Y-96077944D01*
X104099447Y-96506515D02*
X103575638Y-96506515D01*
X103575638Y-96506515D02*
X103480400Y-96458896D01*
X103480400Y-96458896D02*
X103432780Y-96363658D01*
X103432780Y-96363658D02*
X103432780Y-96220801D01*
X103432780Y-96220801D02*
X103480400Y-96125563D01*
X103480400Y-96125563D02*
X103528019Y-96077944D01*
X103480400Y-95173182D02*
X103432780Y-95268420D01*
X103432780Y-95268420D02*
X103432780Y-95458896D01*
X103432780Y-95458896D02*
X103480400Y-95554134D01*
X103480400Y-95554134D02*
X103528019Y-95601753D01*
X103528019Y-95601753D02*
X103623257Y-95649372D01*
X103623257Y-95649372D02*
X103908971Y-95649372D01*
X103908971Y-95649372D02*
X104004209Y-95601753D01*
X104004209Y-95601753D02*
X104051828Y-95554134D01*
X104051828Y-95554134D02*
X104099447Y-95458896D01*
X104099447Y-95458896D02*
X104099447Y-95268420D01*
X104099447Y-95268420D02*
X104051828Y-95173182D01*
X104099447Y-94887467D02*
X104099447Y-94506515D01*
X104432780Y-94744610D02*
X103575638Y-94744610D01*
X103575638Y-94744610D02*
X103480400Y-94696991D01*
X103480400Y-94696991D02*
X103432780Y-94601753D01*
X103432780Y-94601753D02*
X103432780Y-94506515D01*
X103432780Y-94173181D02*
X104099447Y-94173181D01*
X104432780Y-94173181D02*
X104385161Y-94220800D01*
X104385161Y-94220800D02*
X104337542Y-94173181D01*
X104337542Y-94173181D02*
X104385161Y-94125562D01*
X104385161Y-94125562D02*
X104432780Y-94173181D01*
X104432780Y-94173181D02*
X104337542Y-94173181D01*
X103432780Y-93554134D02*
X103480400Y-93649372D01*
X103480400Y-93649372D02*
X103528019Y-93696991D01*
X103528019Y-93696991D02*
X103623257Y-93744610D01*
X103623257Y-93744610D02*
X103908971Y-93744610D01*
X103908971Y-93744610D02*
X104004209Y-93696991D01*
X104004209Y-93696991D02*
X104051828Y-93649372D01*
X104051828Y-93649372D02*
X104099447Y-93554134D01*
X104099447Y-93554134D02*
X104099447Y-93411277D01*
X104099447Y-93411277D02*
X104051828Y-93316039D01*
X104051828Y-93316039D02*
X104004209Y-93268420D01*
X104004209Y-93268420D02*
X103908971Y-93220801D01*
X103908971Y-93220801D02*
X103623257Y-93220801D01*
X103623257Y-93220801D02*
X103528019Y-93268420D01*
X103528019Y-93268420D02*
X103480400Y-93316039D01*
X103480400Y-93316039D02*
X103432780Y-93411277D01*
X103432780Y-93411277D02*
X103432780Y-93554134D01*
X104099447Y-92792229D02*
X103432780Y-92792229D01*
X104004209Y-92792229D02*
X104051828Y-92744610D01*
X104051828Y-92744610D02*
X104099447Y-92649372D01*
X104099447Y-92649372D02*
X104099447Y-92506515D01*
X104099447Y-92506515D02*
X104051828Y-92411277D01*
X104051828Y-92411277D02*
X103956590Y-92363658D01*
X103956590Y-92363658D02*
X103432780Y-92363658D01*
X103480400Y-91935086D02*
X103432780Y-91839848D01*
X103432780Y-91839848D02*
X103432780Y-91649372D01*
X103432780Y-91649372D02*
X103480400Y-91554134D01*
X103480400Y-91554134D02*
X103575638Y-91506515D01*
X103575638Y-91506515D02*
X103623257Y-91506515D01*
X103623257Y-91506515D02*
X103718495Y-91554134D01*
X103718495Y-91554134D02*
X103766114Y-91649372D01*
X103766114Y-91649372D02*
X103766114Y-91792229D01*
X103766114Y-91792229D02*
X103813733Y-91887467D01*
X103813733Y-91887467D02*
X103908971Y-91935086D01*
X103908971Y-91935086D02*
X103956590Y-91935086D01*
X103956590Y-91935086D02*
X104051828Y-91887467D01*
X104051828Y-91887467D02*
X104099447Y-91792229D01*
X104099447Y-91792229D02*
X104099447Y-91649372D01*
X104099447Y-91649372D02*
X104051828Y-91554134D01*
D10*
X124598342Y-106690978D02*
X127598342Y-106690978D01*
X127598342Y-106690978D02*
X125455485Y-105690978D01*
X125455485Y-105690978D02*
X127598342Y-104690978D01*
X127598342Y-104690978D02*
X124598342Y-104690978D01*
X124741200Y-102119550D02*
X124598342Y-102405264D01*
X124598342Y-102405264D02*
X124598342Y-102976693D01*
X124598342Y-102976693D02*
X124741200Y-103262407D01*
X124741200Y-103262407D02*
X125026914Y-103405264D01*
X125026914Y-103405264D02*
X126169771Y-103405264D01*
X126169771Y-103405264D02*
X126455485Y-103262407D01*
X126455485Y-103262407D02*
X126598342Y-102976693D01*
X126598342Y-102976693D02*
X126598342Y-102405264D01*
X126598342Y-102405264D02*
X126455485Y-102119550D01*
X126455485Y-102119550D02*
X126169771Y-101976693D01*
X126169771Y-101976693D02*
X125884057Y-101976693D01*
X125884057Y-101976693D02*
X125598342Y-103405264D01*
X124598342Y-100690978D02*
X126598342Y-100690978D01*
X126312628Y-100690978D02*
X126455485Y-100548121D01*
X126455485Y-100548121D02*
X126598342Y-100262406D01*
X126598342Y-100262406D02*
X126598342Y-99833835D01*
X126598342Y-99833835D02*
X126455485Y-99548121D01*
X126455485Y-99548121D02*
X126169771Y-99405264D01*
X126169771Y-99405264D02*
X124598342Y-99405264D01*
X126169771Y-99405264D02*
X126455485Y-99262406D01*
X126455485Y-99262406D02*
X126598342Y-98976692D01*
X126598342Y-98976692D02*
X126598342Y-98548121D01*
X126598342Y-98548121D02*
X126455485Y-98262406D01*
X126455485Y-98262406D02*
X126169771Y-98119549D01*
X126169771Y-98119549D02*
X124598342Y-98119549D01*
X124598342Y-96262406D02*
X124741200Y-96548121D01*
X124741200Y-96548121D02*
X124884057Y-96690978D01*
X124884057Y-96690978D02*
X125169771Y-96833835D01*
X125169771Y-96833835D02*
X126026914Y-96833835D01*
X126026914Y-96833835D02*
X126312628Y-96690978D01*
X126312628Y-96690978D02*
X126455485Y-96548121D01*
X126455485Y-96548121D02*
X126598342Y-96262406D01*
X126598342Y-96262406D02*
X126598342Y-95833835D01*
X126598342Y-95833835D02*
X126455485Y-95548121D01*
X126455485Y-95548121D02*
X126312628Y-95405264D01*
X126312628Y-95405264D02*
X126026914Y-95262406D01*
X126026914Y-95262406D02*
X125169771Y-95262406D01*
X125169771Y-95262406D02*
X124884057Y-95405264D01*
X124884057Y-95405264D02*
X124741200Y-95548121D01*
X124741200Y-95548121D02*
X124598342Y-95833835D01*
X124598342Y-95833835D02*
X124598342Y-96262406D01*
X124598342Y-93976692D02*
X126598342Y-93976692D01*
X126026914Y-93976692D02*
X126312628Y-93833835D01*
X126312628Y-93833835D02*
X126455485Y-93690978D01*
X126455485Y-93690978D02*
X126598342Y-93405263D01*
X126598342Y-93405263D02*
X126598342Y-93119549D01*
X126598342Y-92405263D02*
X124598342Y-91690977D01*
X126598342Y-90976692D02*
X124598342Y-91690977D01*
X124598342Y-91690977D02*
X123884057Y-91976692D01*
X123884057Y-91976692D02*
X123741200Y-92119549D01*
X123741200Y-92119549D02*
X123598342Y-92405263D01*
X127455485Y-85976692D02*
X127598342Y-86262407D01*
X127598342Y-86262407D02*
X127598342Y-86690978D01*
X127598342Y-86690978D02*
X127455485Y-87119549D01*
X127455485Y-87119549D02*
X127169771Y-87405264D01*
X127169771Y-87405264D02*
X126884057Y-87548121D01*
X126884057Y-87548121D02*
X126312628Y-87690978D01*
X126312628Y-87690978D02*
X125884057Y-87690978D01*
X125884057Y-87690978D02*
X125312628Y-87548121D01*
X125312628Y-87548121D02*
X125026914Y-87405264D01*
X125026914Y-87405264D02*
X124741200Y-87119549D01*
X124741200Y-87119549D02*
X124598342Y-86690978D01*
X124598342Y-86690978D02*
X124598342Y-86405264D01*
X124598342Y-86405264D02*
X124741200Y-85976692D01*
X124741200Y-85976692D02*
X124884057Y-85833835D01*
X124884057Y-85833835D02*
X125884057Y-85833835D01*
X125884057Y-85833835D02*
X125884057Y-86405264D01*
X124598342Y-83262407D02*
X126169771Y-83262407D01*
X126169771Y-83262407D02*
X126455485Y-83405264D01*
X126455485Y-83405264D02*
X126598342Y-83690978D01*
X126598342Y-83690978D02*
X126598342Y-84262407D01*
X126598342Y-84262407D02*
X126455485Y-84548121D01*
X124741200Y-83262407D02*
X124598342Y-83548121D01*
X124598342Y-83548121D02*
X124598342Y-84262407D01*
X124598342Y-84262407D02*
X124741200Y-84548121D01*
X124741200Y-84548121D02*
X125026914Y-84690978D01*
X125026914Y-84690978D02*
X125312628Y-84690978D01*
X125312628Y-84690978D02*
X125598342Y-84548121D01*
X125598342Y-84548121D02*
X125741200Y-84262407D01*
X125741200Y-84262407D02*
X125741200Y-83548121D01*
X125741200Y-83548121D02*
X125884057Y-83262407D01*
X124598342Y-81833835D02*
X126598342Y-81833835D01*
X126312628Y-81833835D02*
X126455485Y-81690978D01*
X126455485Y-81690978D02*
X126598342Y-81405263D01*
X126598342Y-81405263D02*
X126598342Y-80976692D01*
X126598342Y-80976692D02*
X126455485Y-80690978D01*
X126455485Y-80690978D02*
X126169771Y-80548121D01*
X126169771Y-80548121D02*
X124598342Y-80548121D01*
X126169771Y-80548121D02*
X126455485Y-80405263D01*
X126455485Y-80405263D02*
X126598342Y-80119549D01*
X126598342Y-80119549D02*
X126598342Y-79690978D01*
X126598342Y-79690978D02*
X126455485Y-79405263D01*
X126455485Y-79405263D02*
X126169771Y-79262406D01*
X126169771Y-79262406D02*
X124598342Y-79262406D01*
X124741200Y-76690978D02*
X124598342Y-76976692D01*
X124598342Y-76976692D02*
X124598342Y-77548121D01*
X124598342Y-77548121D02*
X124741200Y-77833835D01*
X124741200Y-77833835D02*
X125026914Y-77976692D01*
X125026914Y-77976692D02*
X126169771Y-77976692D01*
X126169771Y-77976692D02*
X126455485Y-77833835D01*
X126455485Y-77833835D02*
X126598342Y-77548121D01*
X126598342Y-77548121D02*
X126598342Y-76976692D01*
X126598342Y-76976692D02*
X126455485Y-76690978D01*
X126455485Y-76690978D02*
X126169771Y-76548121D01*
X126169771Y-76548121D02*
X125884057Y-76548121D01*
X125884057Y-76548121D02*
X125598342Y-77976692D01*
%LPC*%
D13*
%TO.C,SW1*%
X90487500Y-80962500D03*
D14*
X95567500Y-80962500D03*
D13*
X100647500Y-80962500D03*
D15*
X98107500Y-75882500D03*
X91757500Y-78422500D03*
%TD*%
D16*
%TO.C,R3*%
X156501250Y-78540000D03*
D17*
X156501250Y-73460000D03*
%TD*%
D16*
%TO.C,R1*%
X152501250Y-78540000D03*
D17*
X152501250Y-73460000D03*
%TD*%
D18*
%TO.C,D2*%
X147501250Y-76200000D03*
D19*
X144961250Y-76200000D03*
%TD*%
D18*
%TO.C,D1*%
X140270000Y-76200000D03*
D19*
X137730000Y-76200000D03*
%TD*%
D20*
%TO.C,U1*%
X153501250Y-106700000D03*
X153501250Y-104160000D03*
X153501250Y-101620000D03*
X153501250Y-99080000D03*
X153501250Y-96540000D03*
X153501250Y-94000000D03*
X153501250Y-91460000D03*
X138261250Y-91460000D03*
X138261250Y-94000000D03*
X138261250Y-96540000D03*
X138261250Y-99080000D03*
X138261250Y-101620000D03*
X138261250Y-104160000D03*
X138261250Y-106700000D03*
%TD*%
D13*
%TO.C,SW4*%
X109537500Y-100012500D03*
D14*
X114617500Y-100012500D03*
D13*
X119697500Y-100012500D03*
D15*
X117157500Y-94932500D03*
X110807500Y-97472500D03*
%TD*%
D16*
%TO.C,R2*%
X152501250Y-87000000D03*
D17*
X152501250Y-81920000D03*
%TD*%
D18*
%TO.C,D3*%
X140400000Y-85000000D03*
D19*
X137860000Y-85000000D03*
%TD*%
D13*
%TO.C,SW3*%
X90487500Y-100012500D03*
D14*
X95567500Y-100012500D03*
D13*
X100647500Y-100012500D03*
D15*
X98107500Y-94932500D03*
X91757500Y-97472500D03*
%TD*%
D13*
%TO.C,SW2*%
X109537500Y-80962500D03*
D14*
X114617500Y-80962500D03*
D13*
X119697500Y-80962500D03*
D15*
X117157500Y-75882500D03*
X110807500Y-78422500D03*
%TD*%
D18*
%TO.C,D4*%
X147770000Y-85000000D03*
D19*
X145230000Y-85000000D03*
%TD*%
D16*
%TO.C,R4*%
X156501250Y-87040000D03*
D17*
X156501250Y-81960000D03*
%TD*%
%LPD*%
M02*
