%TF.GenerationSoftware,KiCad,Pcbnew,8.0.7*%
%TF.CreationDate,2025-06-28T19:36:39+10:00*%
%TF.ProjectId,fidget,66696467-6574-42e6-9b69-6361645f7063,rev?*%
%TF.SameCoordinates,Original*%
%TF.FileFunction,Soldermask,Top*%
%TF.FilePolarity,Negative*%
%FSLAX46Y46*%
G04 Gerber Fmt 4.6, Leading zero omitted, Abs format (unit mm)*
G04 Created by KiCad (PCBNEW 8.0.7) date 2025-06-28 19:36:39*
%MOMM*%
%LPD*%
G01*
G04 APERTURE LIST*
G04 Aperture macros list*
%AMRoundRect*
0 Rectangle with rounded corners*
0 $1 Rounding radius*
0 $2 $3 $4 $5 $6 $7 $8 $9 X,Y pos of 4 corners*
0 Add a 4 corners polygon primitive as box body*
4,1,4,$2,$3,$4,$5,$6,$7,$8,$9,$2,$3,0*
0 Add four circle primitives for the rounded corners*
1,1,$1+$1,$2,$3*
1,1,$1+$1,$4,$5*
1,1,$1+$1,$6,$7*
1,1,$1+$1,$8,$9*
0 Add four rect primitives between the rounded corners*
20,1,$1+$1,$2,$3,$4,$5,0*
20,1,$1+$1,$4,$5,$6,$7,0*
20,1,$1+$1,$6,$7,$8,$9,0*
20,1,$1+$1,$8,$9,$2,$3,0*%
G04 Aperture macros list end*
%ADD10C,1.700000*%
%ADD11C,4.000000*%
%ADD12C,2.200000*%
%ADD13C,1.400000*%
%ADD14O,1.400000X1.400000*%
%ADD15C,2.019000*%
%ADD16RoundRect,0.102000X-0.907500X-0.907500X0.907500X-0.907500X0.907500X0.907500X-0.907500X0.907500X0*%
%ADD17RoundRect,0.152400X-1.063600X-0.609600X1.063600X-0.609600X1.063600X0.609600X-1.063600X0.609600X0*%
%ADD18C,1.524000*%
%ADD19RoundRect,0.152400X1.063600X0.609600X-1.063600X0.609600X-1.063600X-0.609600X1.063600X-0.609600X0*%
G04 APERTURE END LIST*
D10*
%TO.C,SW1*%
X90487500Y-80962500D03*
D11*
X95567500Y-80962500D03*
D10*
X100647500Y-80962500D03*
D12*
X98107500Y-75882500D03*
X91757500Y-78422500D03*
%TD*%
D13*
%TO.C,R3*%
X156501250Y-78540000D03*
D14*
X156501250Y-73460000D03*
%TD*%
D13*
%TO.C,R1*%
X152501250Y-78540000D03*
D14*
X152501250Y-73460000D03*
%TD*%
D15*
%TO.C,D2*%
X147501250Y-76200000D03*
D16*
X144961250Y-76200000D03*
%TD*%
D15*
%TO.C,D1*%
X140270000Y-76200000D03*
D16*
X137730000Y-76200000D03*
%TD*%
D17*
%TO.C,U1*%
X154336250Y-106700000D03*
D18*
X153501250Y-106700000D03*
D17*
X154336250Y-104160000D03*
D18*
X153501250Y-104160000D03*
D17*
X154336250Y-101620000D03*
D18*
X153501250Y-101620000D03*
D17*
X154336250Y-99080000D03*
D18*
X153501250Y-99080000D03*
D17*
X154336250Y-96540000D03*
D18*
X153501250Y-96540000D03*
D17*
X154336250Y-94000000D03*
D18*
X153501250Y-94000000D03*
D17*
X154336250Y-91460000D03*
D18*
X153501250Y-91460000D03*
X138261250Y-91460000D03*
D19*
X137426250Y-91460000D03*
D18*
X138261250Y-94000000D03*
D19*
X137426250Y-94000000D03*
D18*
X138261250Y-96540000D03*
D19*
X137426250Y-96540000D03*
D18*
X138261250Y-99080000D03*
D19*
X137426250Y-99080000D03*
D18*
X138261250Y-101620000D03*
D19*
X137426250Y-101620000D03*
D18*
X138261250Y-104160000D03*
D19*
X137426250Y-104160000D03*
D18*
X138261250Y-106700000D03*
D19*
X137426250Y-106700000D03*
%TD*%
D10*
%TO.C,SW4*%
X109537500Y-100012500D03*
D11*
X114617500Y-100012500D03*
D10*
X119697500Y-100012500D03*
D12*
X117157500Y-94932500D03*
X110807500Y-97472500D03*
%TD*%
D13*
%TO.C,R2*%
X152501250Y-87000000D03*
D14*
X152501250Y-81920000D03*
%TD*%
D15*
%TO.C,D3*%
X140400000Y-85000000D03*
D16*
X137860000Y-85000000D03*
%TD*%
D10*
%TO.C,SW3*%
X90487500Y-100012500D03*
D11*
X95567500Y-100012500D03*
D10*
X100647500Y-100012500D03*
D12*
X98107500Y-94932500D03*
X91757500Y-97472500D03*
%TD*%
D10*
%TO.C,SW2*%
X109537500Y-80962500D03*
D11*
X114617500Y-80962500D03*
D10*
X119697500Y-80962500D03*
D12*
X117157500Y-75882500D03*
X110807500Y-78422500D03*
%TD*%
D15*
%TO.C,D4*%
X147770000Y-85000000D03*
D16*
X145230000Y-85000000D03*
%TD*%
D13*
%TO.C,R4*%
X156501250Y-87040000D03*
D14*
X156501250Y-81960000D03*
%TD*%
M02*
