%TF.GenerationSoftware,KiCad,Pcbnew,8.0.7*%
%TF.CreationDate,2025-06-28T19:36:39+10:00*%
%TF.ProjectId,fidget,66696467-6574-42e6-9b69-6361645f7063,rev?*%
%TF.SameCoordinates,Original*%
%TF.FileFunction,Copper,L2,Bot*%
%TF.FilePolarity,Positive*%
%FSLAX46Y46*%
G04 Gerber Fmt 4.6, Leading zero omitted, Abs format (unit mm)*
G04 Created by KiCad (PCBNEW 8.0.7) date 2025-06-28 19:36:39*
%MOMM*%
%LPD*%
G01*
G04 APERTURE LIST*
%TA.AperFunction,ComponentPad*%
%ADD10C,2.200000*%
%TD*%
%TA.AperFunction,ComponentPad*%
%ADD11C,1.400000*%
%TD*%
%TA.AperFunction,ComponentPad*%
%ADD12O,1.400000X1.400000*%
%TD*%
%TA.AperFunction,ComponentPad*%
%ADD13C,1.815000*%
%TD*%
%TA.AperFunction,ComponentPad*%
%ADD14R,1.815000X1.815000*%
%TD*%
%TA.AperFunction,ComponentPad*%
%ADD15C,1.524000*%
%TD*%
%TA.AperFunction,ViaPad*%
%ADD16C,0.600000*%
%TD*%
%TA.AperFunction,Conductor*%
%ADD17C,0.200000*%
%TD*%
G04 APERTURE END LIST*
D10*
%TO.P,SW1,1,1*%
%TO.N,button1*%
X98107500Y-75882500D03*
%TO.P,SW1,2,2*%
%TO.N,GND*%
X91757500Y-78422500D03*
%TD*%
D11*
%TO.P,R3,1*%
%TO.N,Net-(D3-PadA)*%
X156501250Y-78540000D03*
D12*
%TO.P,R3,2*%
%TO.N,led3*%
X156501250Y-73460000D03*
%TD*%
D11*
%TO.P,R1,1*%
%TO.N,Net-(D1-PadA)*%
X152501250Y-78540000D03*
D12*
%TO.P,R1,2*%
%TO.N,led1*%
X152501250Y-73460000D03*
%TD*%
D13*
%TO.P,D2,A*%
%TO.N,Net-(D2-PadA)*%
X147501250Y-76200000D03*
D14*
%TO.P,D2,C*%
%TO.N,GND*%
X144961250Y-76200000D03*
%TD*%
D13*
%TO.P,D1,A*%
%TO.N,Net-(D1-PadA)*%
X140270000Y-76200000D03*
D14*
%TO.P,D1,C*%
%TO.N,GND*%
X137730000Y-76200000D03*
%TD*%
D15*
%TO.P,U1,1,GPIO26/ADC0/A0*%
%TO.N,button1*%
X153501250Y-106700000D03*
%TO.P,U1,2,GPIO27/ADC1/A1*%
%TO.N,button2*%
X153501250Y-104160000D03*
%TO.P,U1,3,GPIO28/ADC2/A2*%
%TO.N,unconnected-(U1-GPIO28{slash}ADC2{slash}A2-Pad3)_1*%
X153501250Y-101620000D03*
%TO.P,U1,4,GPIO29/ADC3/A3*%
%TO.N,led1*%
X153501250Y-99080000D03*
%TO.P,U1,5,GPIO6/SDA*%
%TO.N,led2*%
X153501250Y-96540000D03*
%TO.P,U1,6,GPIO7/SCL*%
%TO.N,led4*%
X153501250Y-94000000D03*
%TO.P,U1,7,GPIO0/TX*%
%TO.N,led3*%
X153501250Y-91460000D03*
%TO.P,U1,8,GPIO1/RX*%
%TO.N,unconnected-(U1-GPIO1{slash}RX-Pad8)*%
X138261250Y-91460000D03*
%TO.P,U1,9,GPIO2/SCK*%
%TO.N,unconnected-(U1-GPIO2{slash}SCK-Pad9)_1*%
X138261250Y-94000000D03*
%TO.P,U1,10,GPIO4/MISO*%
%TO.N,button4*%
X138261250Y-96540000D03*
%TO.P,U1,11,GPIO3/MOSI*%
%TO.N,button3*%
X138261250Y-99080000D03*
%TO.P,U1,12,3V3*%
%TO.N,unconnected-(U1-3V3-Pad12)_1*%
X138261250Y-101620000D03*
%TO.P,U1,13,GND*%
%TO.N,GND*%
X138261250Y-104160000D03*
%TO.P,U1,14,VBUS*%
%TO.N,unconnected-(U1-VBUS-Pad14)_1*%
X138261250Y-106700000D03*
%TD*%
D10*
%TO.P,SW4,1,1*%
%TO.N,button4*%
X117157500Y-94932500D03*
%TO.P,SW4,2,2*%
%TO.N,GND*%
X110807500Y-97472500D03*
%TD*%
D11*
%TO.P,R2,1*%
%TO.N,Net-(D2-PadA)*%
X152501250Y-87000000D03*
D12*
%TO.P,R2,2*%
%TO.N,led2*%
X152501250Y-81920000D03*
%TD*%
D13*
%TO.P,D3,A*%
%TO.N,Net-(D3-PadA)*%
X140400000Y-85000000D03*
D14*
%TO.P,D3,C*%
%TO.N,GND*%
X137860000Y-85000000D03*
%TD*%
D10*
%TO.P,SW3,1,1*%
%TO.N,button3*%
X98107500Y-94932500D03*
%TO.P,SW3,2,2*%
%TO.N,GND*%
X91757500Y-97472500D03*
%TD*%
%TO.P,SW2,1,1*%
%TO.N,button2*%
X117157500Y-75882500D03*
%TO.P,SW2,2,2*%
%TO.N,GND*%
X110807500Y-78422500D03*
%TD*%
D13*
%TO.P,D4,A*%
%TO.N,Net-(D4-PadA)*%
X147770000Y-85000000D03*
D14*
%TO.P,D4,C*%
%TO.N,GND*%
X145230000Y-85000000D03*
%TD*%
D11*
%TO.P,R4,1*%
%TO.N,Net-(D4-PadA)*%
X156501250Y-87040000D03*
D12*
%TO.P,R4,2*%
%TO.N,led4*%
X156501250Y-81960000D03*
%TD*%
D16*
%TO.N,led1*%
X154000000Y-87000000D03*
%TO.N,led2*%
X150000000Y-87000000D03*
X150000000Y-95000000D03*
%TO.N,led4*%
X158000000Y-89000000D03*
%TD*%
D17*
%TO.N,Net-(D1-PadA)*%
X142610000Y-78540000D02*
X152501250Y-78540000D01*
X140270000Y-76200000D02*
X142610000Y-78540000D01*
%TO.N,Net-(D3-PadA)*%
X140400000Y-85000000D02*
X141607500Y-83792500D01*
X141607500Y-83792500D02*
X149207500Y-83792500D01*
X154460000Y-78540000D02*
X156501250Y-78540000D01*
X149207500Y-83792500D02*
X154460000Y-78540000D01*
%TO.N,led1*%
X152439250Y-98018000D02*
X153501250Y-99080000D01*
X154000000Y-87000000D02*
X152439250Y-88560750D01*
X152439250Y-88560750D02*
X152439250Y-98018000D01*
%TO.N,led2*%
X150000000Y-87000000D02*
X150000000Y-95000000D01*
%TO.N,led3*%
X157901250Y-74860000D02*
X157901250Y-87060000D01*
X156501250Y-73460000D02*
X157901250Y-74860000D01*
X157901250Y-87060000D02*
X153501250Y-91460000D01*
%TO.N,Net-(D4-PadA)*%
X154461250Y-85000000D02*
X156501250Y-87040000D01*
X147770000Y-85000000D02*
X154461250Y-85000000D01*
%TO.N,led4*%
X158000000Y-89501250D02*
X153501250Y-94000000D01*
X158000000Y-89000000D02*
X158000000Y-89501250D01*
%TD*%
%TA.AperFunction,Conductor*%
%TO.N,GND*%
G36*
X159443039Y-71320185D02*
G01*
X159488794Y-71372989D01*
X159500000Y-71424500D01*
X159500000Y-109275500D01*
X159480315Y-109342539D01*
X159427511Y-109388294D01*
X159376000Y-109399500D01*
X86224500Y-109399500D01*
X86157461Y-109379815D01*
X86111706Y-109327011D01*
X86100500Y-109275500D01*
X86100500Y-99925889D01*
X89387000Y-99925889D01*
X89387000Y-100099110D01*
X89399420Y-100177531D01*
X89414098Y-100270201D01*
X89467627Y-100434945D01*
X89546268Y-100589288D01*
X89648086Y-100729428D01*
X89770572Y-100851914D01*
X89910712Y-100953732D01*
X90065055Y-101032373D01*
X90229799Y-101085902D01*
X90400889Y-101113000D01*
X90400890Y-101113000D01*
X90574110Y-101113000D01*
X90574111Y-101113000D01*
X90745201Y-101085902D01*
X90909945Y-101032373D01*
X91064288Y-100953732D01*
X91204428Y-100851914D01*
X91326914Y-100729428D01*
X91428732Y-100589288D01*
X91507373Y-100434945D01*
X91560902Y-100270201D01*
X91588000Y-100099111D01*
X91588000Y-99925889D01*
X91578354Y-99864986D01*
X93317000Y-99864986D01*
X93317000Y-100160013D01*
X93349071Y-100403613D01*
X93355507Y-100452493D01*
X93429712Y-100729430D01*
X93431861Y-100737451D01*
X93431864Y-100737461D01*
X93544754Y-101010000D01*
X93544758Y-101010010D01*
X93692261Y-101265493D01*
X93871852Y-101499540D01*
X93871858Y-101499547D01*
X94080452Y-101708141D01*
X94080459Y-101708147D01*
X94314506Y-101887738D01*
X94569989Y-102035241D01*
X94569990Y-102035241D01*
X94569993Y-102035243D01*
X94842548Y-102148139D01*
X95127507Y-102224493D01*
X95419994Y-102263000D01*
X95420001Y-102263000D01*
X95714999Y-102263000D01*
X95715006Y-102263000D01*
X96007493Y-102224493D01*
X96292452Y-102148139D01*
X96565007Y-102035243D01*
X96820494Y-101887738D01*
X97054542Y-101708146D01*
X97263146Y-101499542D01*
X97442738Y-101265494D01*
X97590243Y-101010007D01*
X97703139Y-100737452D01*
X97779493Y-100452493D01*
X97818000Y-100160006D01*
X97818000Y-99925889D01*
X99547000Y-99925889D01*
X99547000Y-100099110D01*
X99559420Y-100177531D01*
X99574098Y-100270201D01*
X99627627Y-100434945D01*
X99706268Y-100589288D01*
X99808086Y-100729428D01*
X99930572Y-100851914D01*
X100070712Y-100953732D01*
X100225055Y-101032373D01*
X100389799Y-101085902D01*
X100560889Y-101113000D01*
X100560890Y-101113000D01*
X100734110Y-101113000D01*
X100734111Y-101113000D01*
X100905201Y-101085902D01*
X101069945Y-101032373D01*
X101224288Y-100953732D01*
X101364428Y-100851914D01*
X101486914Y-100729428D01*
X101588732Y-100589288D01*
X101667373Y-100434945D01*
X101720902Y-100270201D01*
X101748000Y-100099111D01*
X101748000Y-99925889D01*
X108437000Y-99925889D01*
X108437000Y-100099110D01*
X108449420Y-100177531D01*
X108464098Y-100270201D01*
X108517627Y-100434945D01*
X108596268Y-100589288D01*
X108698086Y-100729428D01*
X108820572Y-100851914D01*
X108960712Y-100953732D01*
X109115055Y-101032373D01*
X109279799Y-101085902D01*
X109450889Y-101113000D01*
X109450890Y-101113000D01*
X109624110Y-101113000D01*
X109624111Y-101113000D01*
X109795201Y-101085902D01*
X109959945Y-101032373D01*
X110114288Y-100953732D01*
X110254428Y-100851914D01*
X110376914Y-100729428D01*
X110478732Y-100589288D01*
X110557373Y-100434945D01*
X110610902Y-100270201D01*
X110638000Y-100099111D01*
X110638000Y-99925889D01*
X110628354Y-99864986D01*
X112367000Y-99864986D01*
X112367000Y-100160013D01*
X112399071Y-100403613D01*
X112405507Y-100452493D01*
X112479712Y-100729430D01*
X112481861Y-100737451D01*
X112481864Y-100737461D01*
X112594754Y-101010000D01*
X112594758Y-101010010D01*
X112742261Y-101265493D01*
X112921852Y-101499540D01*
X112921858Y-101499547D01*
X113130452Y-101708141D01*
X113130459Y-101708147D01*
X113364506Y-101887738D01*
X113619989Y-102035241D01*
X113619990Y-102035241D01*
X113619993Y-102035243D01*
X113892548Y-102148139D01*
X114177507Y-102224493D01*
X114469994Y-102263000D01*
X114470001Y-102263000D01*
X114764999Y-102263000D01*
X114765006Y-102263000D01*
X115057493Y-102224493D01*
X115342452Y-102148139D01*
X115615007Y-102035243D01*
X115870494Y-101887738D01*
X116104542Y-101708146D01*
X116313146Y-101499542D01*
X116492738Y-101265494D01*
X116640243Y-101010007D01*
X116753139Y-100737452D01*
X116829493Y-100452493D01*
X116868000Y-100160006D01*
X116868000Y-99925889D01*
X118597000Y-99925889D01*
X118597000Y-100099110D01*
X118609420Y-100177531D01*
X118624098Y-100270201D01*
X118677627Y-100434945D01*
X118756268Y-100589288D01*
X118858086Y-100729428D01*
X118980572Y-100851914D01*
X119120712Y-100953732D01*
X119275055Y-101032373D01*
X119439799Y-101085902D01*
X119610889Y-101113000D01*
X119610890Y-101113000D01*
X119784110Y-101113000D01*
X119784111Y-101113000D01*
X119955201Y-101085902D01*
X120119945Y-101032373D01*
X120274288Y-100953732D01*
X120414428Y-100851914D01*
X120536914Y-100729428D01*
X120638732Y-100589288D01*
X120717373Y-100434945D01*
X120770902Y-100270201D01*
X120798000Y-100099111D01*
X120798000Y-99925889D01*
X120770902Y-99754799D01*
X120717373Y-99590055D01*
X120638732Y-99435712D01*
X120536914Y-99295572D01*
X120414428Y-99173086D01*
X120274288Y-99071268D01*
X120119945Y-98992627D01*
X119955201Y-98939098D01*
X119955199Y-98939097D01*
X119955198Y-98939097D01*
X119806771Y-98915589D01*
X119784111Y-98912000D01*
X119610889Y-98912000D01*
X119588229Y-98915589D01*
X119439802Y-98939097D01*
X119275052Y-98992628D01*
X119120711Y-99071268D01*
X119073322Y-99105699D01*
X118980572Y-99173086D01*
X118980570Y-99173088D01*
X118980569Y-99173088D01*
X118858088Y-99295569D01*
X118858088Y-99295570D01*
X118858086Y-99295572D01*
X118814359Y-99355756D01*
X118756268Y-99435711D01*
X118677628Y-99590052D01*
X118624097Y-99754802D01*
X118597000Y-99925889D01*
X116868000Y-99925889D01*
X116868000Y-99864994D01*
X116829493Y-99572507D01*
X116753139Y-99287548D01*
X116640243Y-99014993D01*
X116630949Y-98998896D01*
X116492738Y-98759506D01*
X116313147Y-98525459D01*
X116313141Y-98525452D01*
X116104547Y-98316858D01*
X116104540Y-98316852D01*
X115870493Y-98137261D01*
X115615010Y-97989758D01*
X115615000Y-97989754D01*
X115342461Y-97876864D01*
X115342454Y-97876862D01*
X115342452Y-97876861D01*
X115057493Y-97800507D01*
X115008613Y-97794071D01*
X114765013Y-97762000D01*
X114765006Y-97762000D01*
X114469994Y-97762000D01*
X114469986Y-97762000D01*
X114191585Y-97798653D01*
X114177507Y-97800507D01*
X114060234Y-97831930D01*
X113892548Y-97876861D01*
X113892538Y-97876864D01*
X113619999Y-97989754D01*
X113619989Y-97989758D01*
X113364506Y-98137261D01*
X113130459Y-98316852D01*
X113130452Y-98316858D01*
X112921858Y-98525452D01*
X112921852Y-98525459D01*
X112742261Y-98759506D01*
X112594758Y-99014989D01*
X112594754Y-99014999D01*
X112481864Y-99287538D01*
X112481861Y-99287548D01*
X112405508Y-99572504D01*
X112405506Y-99572515D01*
X112367000Y-99864986D01*
X110628354Y-99864986D01*
X110610902Y-99754799D01*
X110557373Y-99590055D01*
X110478732Y-99435712D01*
X110376914Y-99295572D01*
X110318056Y-99236714D01*
X110284571Y-99175391D01*
X110289555Y-99105699D01*
X110331427Y-99049766D01*
X110396891Y-99025349D01*
X110434684Y-99028459D01*
X110556428Y-99057687D01*
X110807500Y-99077447D01*
X111058572Y-99057687D01*
X111303456Y-98998896D01*
X111536131Y-98902519D01*
X111750861Y-98770932D01*
X111750863Y-98770930D01*
X111751680Y-98770232D01*
X111131525Y-98150078D01*
X111162758Y-98137141D01*
X111285597Y-98055063D01*
X111390063Y-97950597D01*
X111472141Y-97827758D01*
X111485078Y-97796525D01*
X112105232Y-98416680D01*
X112105930Y-98415863D01*
X112105932Y-98415861D01*
X112237519Y-98201131D01*
X112333896Y-97968456D01*
X112392687Y-97723572D01*
X112412447Y-97472500D01*
X112392687Y-97221427D01*
X112333896Y-96976543D01*
X112237519Y-96743868D01*
X112105929Y-96529134D01*
X112105233Y-96528319D01*
X112105232Y-96528319D01*
X111485077Y-97148473D01*
X111472141Y-97117242D01*
X111390063Y-96994403D01*
X111285597Y-96889937D01*
X111162758Y-96807859D01*
X111131523Y-96794921D01*
X111751679Y-96174766D01*
X111750862Y-96174068D01*
X111536131Y-96042480D01*
X111303456Y-95946103D01*
X111058572Y-95887312D01*
X110807500Y-95867552D01*
X110556427Y-95887312D01*
X110311543Y-95946103D01*
X110078868Y-96042480D01*
X109864137Y-96174067D01*
X109863318Y-96174766D01*
X110483474Y-96794921D01*
X110452242Y-96807859D01*
X110329403Y-96889937D01*
X110224937Y-96994403D01*
X110142859Y-97117242D01*
X110129921Y-97148474D01*
X109509766Y-96528318D01*
X109509067Y-96529137D01*
X109377480Y-96743868D01*
X109281103Y-96976543D01*
X109222312Y-97221427D01*
X109202552Y-97472500D01*
X109222312Y-97723572D01*
X109281103Y-97968456D01*
X109377480Y-98201131D01*
X109509068Y-98415862D01*
X109509766Y-98416679D01*
X110129921Y-97796524D01*
X110142859Y-97827758D01*
X110224937Y-97950597D01*
X110329403Y-98055063D01*
X110452242Y-98137141D01*
X110483474Y-98150077D01*
X109863319Y-98770232D01*
X109864489Y-98800039D01*
X109847448Y-98867799D01*
X109796480Y-98915589D01*
X109727764Y-98928238D01*
X109721186Y-98927375D01*
X109646771Y-98915589D01*
X109624111Y-98912000D01*
X109450889Y-98912000D01*
X109428229Y-98915589D01*
X109279802Y-98939097D01*
X109115052Y-98992628D01*
X108960711Y-99071268D01*
X108913322Y-99105699D01*
X108820572Y-99173086D01*
X108820570Y-99173088D01*
X108820569Y-99173088D01*
X108698088Y-99295569D01*
X108698088Y-99295570D01*
X108698086Y-99295572D01*
X108654359Y-99355756D01*
X108596268Y-99435711D01*
X108517628Y-99590052D01*
X108464097Y-99754802D01*
X108437000Y-99925889D01*
X101748000Y-99925889D01*
X101720902Y-99754799D01*
X101667373Y-99590055D01*
X101588732Y-99435712D01*
X101486914Y-99295572D01*
X101364428Y-99173086D01*
X101224288Y-99071268D01*
X101069945Y-98992627D01*
X100905201Y-98939098D01*
X100905199Y-98939097D01*
X100905198Y-98939097D01*
X100756771Y-98915589D01*
X100734111Y-98912000D01*
X100560889Y-98912000D01*
X100538229Y-98915589D01*
X100389802Y-98939097D01*
X100225052Y-98992628D01*
X100070711Y-99071268D01*
X100023322Y-99105699D01*
X99930572Y-99173086D01*
X99930570Y-99173088D01*
X99930569Y-99173088D01*
X99808088Y-99295569D01*
X99808088Y-99295570D01*
X99808086Y-99295572D01*
X99764359Y-99355756D01*
X99706268Y-99435711D01*
X99627628Y-99590052D01*
X99574097Y-99754802D01*
X99547000Y-99925889D01*
X97818000Y-99925889D01*
X97818000Y-99864994D01*
X97779493Y-99572507D01*
X97703139Y-99287548D01*
X97590243Y-99014993D01*
X97580949Y-98998896D01*
X97442738Y-98759506D01*
X97263147Y-98525459D01*
X97263141Y-98525452D01*
X97054547Y-98316858D01*
X97054540Y-98316852D01*
X96820493Y-98137261D01*
X96565010Y-97989758D01*
X96565000Y-97989754D01*
X96292461Y-97876864D01*
X96292454Y-97876862D01*
X96292452Y-97876861D01*
X96007493Y-97800507D01*
X95958613Y-97794071D01*
X95715013Y-97762000D01*
X95715006Y-97762000D01*
X95419994Y-97762000D01*
X95419986Y-97762000D01*
X95141585Y-97798653D01*
X95127507Y-97800507D01*
X95010234Y-97831930D01*
X94842548Y-97876861D01*
X94842538Y-97876864D01*
X94569999Y-97989754D01*
X94569989Y-97989758D01*
X94314506Y-98137261D01*
X94080459Y-98316852D01*
X94080452Y-98316858D01*
X93871858Y-98525452D01*
X93871852Y-98525459D01*
X93692261Y-98759506D01*
X93544758Y-99014989D01*
X93544754Y-99014999D01*
X93431864Y-99287538D01*
X93431861Y-99287548D01*
X93355508Y-99572504D01*
X93355506Y-99572515D01*
X93317000Y-99864986D01*
X91578354Y-99864986D01*
X91560902Y-99754799D01*
X91507373Y-99590055D01*
X91428732Y-99435712D01*
X91326914Y-99295572D01*
X91268056Y-99236714D01*
X91234571Y-99175391D01*
X91239555Y-99105699D01*
X91281427Y-99049766D01*
X91346891Y-99025349D01*
X91384684Y-99028459D01*
X91506428Y-99057687D01*
X91757500Y-99077447D01*
X92008572Y-99057687D01*
X92253456Y-98998896D01*
X92486131Y-98902519D01*
X92700861Y-98770932D01*
X92700863Y-98770930D01*
X92701680Y-98770232D01*
X92081525Y-98150078D01*
X92112758Y-98137141D01*
X92235597Y-98055063D01*
X92340063Y-97950597D01*
X92422141Y-97827758D01*
X92435078Y-97796525D01*
X93055232Y-98416680D01*
X93055930Y-98415863D01*
X93055932Y-98415861D01*
X93187519Y-98201131D01*
X93283896Y-97968456D01*
X93342687Y-97723572D01*
X93362447Y-97472500D01*
X93342687Y-97221427D01*
X93283896Y-96976543D01*
X93187519Y-96743868D01*
X93055929Y-96529134D01*
X93055233Y-96528319D01*
X93055232Y-96528319D01*
X92435077Y-97148473D01*
X92422141Y-97117242D01*
X92340063Y-96994403D01*
X92235597Y-96889937D01*
X92112758Y-96807859D01*
X92081523Y-96794921D01*
X92701679Y-96174766D01*
X92700862Y-96174068D01*
X92486131Y-96042480D01*
X92253456Y-95946103D01*
X92008572Y-95887312D01*
X91757500Y-95867552D01*
X91506427Y-95887312D01*
X91261543Y-95946103D01*
X91028868Y-96042480D01*
X90814137Y-96174067D01*
X90813318Y-96174766D01*
X91433474Y-96794921D01*
X91402242Y-96807859D01*
X91279403Y-96889937D01*
X91174937Y-96994403D01*
X91092859Y-97117242D01*
X91079921Y-97148474D01*
X90459766Y-96528318D01*
X90459067Y-96529137D01*
X90327480Y-96743868D01*
X90231103Y-96976543D01*
X90172312Y-97221427D01*
X90152552Y-97472500D01*
X90172312Y-97723572D01*
X90231103Y-97968456D01*
X90327480Y-98201131D01*
X90459068Y-98415862D01*
X90459766Y-98416679D01*
X91079921Y-97796524D01*
X91092859Y-97827758D01*
X91174937Y-97950597D01*
X91279403Y-98055063D01*
X91402242Y-98137141D01*
X91433474Y-98150077D01*
X90813319Y-98770232D01*
X90814489Y-98800039D01*
X90797448Y-98867799D01*
X90746480Y-98915589D01*
X90677764Y-98928238D01*
X90671186Y-98927375D01*
X90596771Y-98915589D01*
X90574111Y-98912000D01*
X90400889Y-98912000D01*
X90378229Y-98915589D01*
X90229802Y-98939097D01*
X90065052Y-98992628D01*
X89910711Y-99071268D01*
X89863322Y-99105699D01*
X89770572Y-99173086D01*
X89770570Y-99173088D01*
X89770569Y-99173088D01*
X89648088Y-99295569D01*
X89648088Y-99295570D01*
X89648086Y-99295572D01*
X89604359Y-99355756D01*
X89546268Y-99435711D01*
X89467628Y-99590052D01*
X89414097Y-99754802D01*
X89387000Y-99925889D01*
X86100500Y-99925889D01*
X86100500Y-94932500D01*
X96502051Y-94932500D01*
X96521817Y-95183651D01*
X96580626Y-95428610D01*
X96677033Y-95661359D01*
X96808660Y-95876153D01*
X96808661Y-95876156D01*
X96834439Y-95906338D01*
X96972276Y-96067724D01*
X97096788Y-96174067D01*
X97163843Y-96231338D01*
X97163846Y-96231339D01*
X97378640Y-96362966D01*
X97611389Y-96459373D01*
X97856352Y-96518183D01*
X98107500Y-96537949D01*
X98358648Y-96518183D01*
X98603611Y-96459373D01*
X98836359Y-96362966D01*
X99051159Y-96231336D01*
X99242724Y-96067724D01*
X99406336Y-95876159D01*
X99537966Y-95661359D01*
X99634373Y-95428611D01*
X99693183Y-95183648D01*
X99712949Y-94932500D01*
X115552051Y-94932500D01*
X115571817Y-95183651D01*
X115630626Y-95428610D01*
X115727033Y-95661359D01*
X115858660Y-95876153D01*
X115858661Y-95876156D01*
X115884439Y-95906338D01*
X116022276Y-96067724D01*
X116146788Y-96174067D01*
X116213843Y-96231338D01*
X116213846Y-96231339D01*
X116428640Y-96362966D01*
X116661389Y-96459373D01*
X116906352Y-96518183D01*
X117157500Y-96537949D01*
X117408648Y-96518183D01*
X117653611Y-96459373D01*
X117886359Y-96362966D01*
X118101159Y-96231336D01*
X118292724Y-96067724D01*
X118456336Y-95876159D01*
X118587966Y-95661359D01*
X118684373Y-95428611D01*
X118743183Y-95183648D01*
X118762949Y-94932500D01*
X118743183Y-94681352D01*
X118684373Y-94436389D01*
X118594771Y-94220070D01*
X118587966Y-94203640D01*
X118456339Y-93988846D01*
X118456338Y-93988843D01*
X118419375Y-93945566D01*
X118292724Y-93797276D01*
X118106523Y-93638245D01*
X118101156Y-93633661D01*
X118101153Y-93633660D01*
X117886359Y-93502033D01*
X117653610Y-93405626D01*
X117408651Y-93346817D01*
X117157500Y-93327051D01*
X116906348Y-93346817D01*
X116661389Y-93405626D01*
X116428640Y-93502033D01*
X116213846Y-93633660D01*
X116213843Y-93633661D01*
X116022276Y-93797276D01*
X115858661Y-93988843D01*
X115858660Y-93988846D01*
X115727033Y-94203640D01*
X115630626Y-94436389D01*
X115571817Y-94681348D01*
X115552051Y-94932500D01*
X99712949Y-94932500D01*
X99693183Y-94681352D01*
X99634373Y-94436389D01*
X99544771Y-94220070D01*
X99537966Y-94203640D01*
X99406339Y-93988846D01*
X99406338Y-93988843D01*
X99369375Y-93945566D01*
X99242724Y-93797276D01*
X99056523Y-93638245D01*
X99051156Y-93633661D01*
X99051153Y-93633660D01*
X98836359Y-93502033D01*
X98603610Y-93405626D01*
X98358651Y-93346817D01*
X98107500Y-93327051D01*
X97856348Y-93346817D01*
X97611389Y-93405626D01*
X97378640Y-93502033D01*
X97163846Y-93633660D01*
X97163843Y-93633661D01*
X96972276Y-93797276D01*
X96808661Y-93988843D01*
X96808660Y-93988846D01*
X96677033Y-94203640D01*
X96580626Y-94436389D01*
X96521817Y-94681348D01*
X96502051Y-94932500D01*
X86100500Y-94932500D01*
X86100500Y-91459997D01*
X136993927Y-91459997D01*
X136993927Y-91460002D01*
X137013179Y-91680062D01*
X137013180Y-91680070D01*
X137070354Y-91893445D01*
X137070355Y-91893447D01*
X137070356Y-91893450D01*
X137128390Y-92017905D01*
X137163716Y-92093662D01*
X137163718Y-92093666D01*
X137290420Y-92274615D01*
X137290425Y-92274621D01*
X137446628Y-92430824D01*
X137446634Y-92430829D01*
X137627583Y-92557531D01*
X137627585Y-92557532D01*
X137627588Y-92557534D01*
X137703343Y-92592859D01*
X137756439Y-92617618D01*
X137808878Y-92663790D01*
X137828030Y-92730984D01*
X137807814Y-92797865D01*
X137756439Y-92842382D01*
X137627590Y-92902465D01*
X137627588Y-92902466D01*
X137446627Y-93029175D01*
X137290425Y-93185377D01*
X137163716Y-93366338D01*
X137163715Y-93366340D01*
X137070357Y-93566548D01*
X137070354Y-93566554D01*
X137013180Y-93779929D01*
X137013179Y-93779937D01*
X136993927Y-93999997D01*
X136993927Y-94000002D01*
X137013179Y-94220062D01*
X137013180Y-94220070D01*
X137070354Y-94433445D01*
X137070355Y-94433447D01*
X137070356Y-94433450D01*
X137097585Y-94491842D01*
X137163716Y-94633662D01*
X137163718Y-94633666D01*
X137290420Y-94814615D01*
X137290425Y-94814621D01*
X137446628Y-94970824D01*
X137446634Y-94970829D01*
X137627583Y-95097531D01*
X137627585Y-95097532D01*
X137627588Y-95097534D01*
X137746998Y-95153215D01*
X137756439Y-95157618D01*
X137808878Y-95203790D01*
X137828030Y-95270984D01*
X137807814Y-95337865D01*
X137756439Y-95382382D01*
X137627590Y-95442465D01*
X137627588Y-95442466D01*
X137446627Y-95569175D01*
X137290425Y-95725377D01*
X137163716Y-95906338D01*
X137163715Y-95906340D01*
X137070357Y-96106548D01*
X137070354Y-96106554D01*
X137013180Y-96319929D01*
X137013179Y-96319937D01*
X136993927Y-96539997D01*
X136993927Y-96540002D01*
X137013179Y-96760062D01*
X137013180Y-96760070D01*
X137070354Y-96973445D01*
X137070355Y-96973447D01*
X137070356Y-96973450D01*
X137080127Y-96994403D01*
X137163716Y-97173662D01*
X137163718Y-97173666D01*
X137290420Y-97354615D01*
X137290425Y-97354621D01*
X137446628Y-97510824D01*
X137446634Y-97510829D01*
X137627583Y-97637531D01*
X137627585Y-97637532D01*
X137627588Y-97637534D01*
X137742819Y-97691267D01*
X137756439Y-97697618D01*
X137808878Y-97743790D01*
X137828030Y-97810984D01*
X137807814Y-97877865D01*
X137756439Y-97922382D01*
X137627590Y-97982465D01*
X137627588Y-97982466D01*
X137446627Y-98109175D01*
X137290425Y-98265377D01*
X137163716Y-98446338D01*
X137163715Y-98446340D01*
X137070357Y-98646548D01*
X137070354Y-98646554D01*
X137013180Y-98859929D01*
X137013179Y-98859937D01*
X136993927Y-99079997D01*
X136993927Y-99080002D01*
X137013179Y-99300062D01*
X137013180Y-99300070D01*
X137070354Y-99513445D01*
X137070355Y-99513447D01*
X137070356Y-99513450D01*
X137163716Y-99713662D01*
X137163718Y-99713666D01*
X137290420Y-99894615D01*
X137290425Y-99894621D01*
X137446628Y-100050824D01*
X137446634Y-100050829D01*
X137627583Y-100177531D01*
X137627585Y-100177532D01*
X137627588Y-100177534D01*
X137746998Y-100233215D01*
X137756439Y-100237618D01*
X137808878Y-100283790D01*
X137828030Y-100350984D01*
X137807814Y-100417865D01*
X137756439Y-100462382D01*
X137627590Y-100522465D01*
X137627588Y-100522466D01*
X137446627Y-100649175D01*
X137290425Y-100805377D01*
X137163716Y-100986338D01*
X137163715Y-100986340D01*
X137070357Y-101186548D01*
X137070354Y-101186554D01*
X137013180Y-101399929D01*
X137013179Y-101399937D01*
X136993927Y-101619997D01*
X136993927Y-101620002D01*
X137013179Y-101840062D01*
X137013180Y-101840070D01*
X137070354Y-102053445D01*
X137070355Y-102053447D01*
X137070356Y-102053450D01*
X137114508Y-102148135D01*
X137163716Y-102253662D01*
X137163718Y-102253666D01*
X137290420Y-102434615D01*
X137290425Y-102434621D01*
X137446628Y-102590824D01*
X137446634Y-102590829D01*
X137627583Y-102717531D01*
X137627585Y-102717532D01*
X137627588Y-102717534D01*
X137756439Y-102777618D01*
X137757031Y-102777894D01*
X137809470Y-102824066D01*
X137828622Y-102891260D01*
X137808406Y-102958141D01*
X137757031Y-103002658D01*
X137627840Y-103062901D01*
X137563061Y-103108258D01*
X138177156Y-103722352D01*
X138089679Y-103745792D01*
X137988320Y-103804311D01*
X137905561Y-103887070D01*
X137847042Y-103988429D01*
X137823602Y-104075905D01*
X137209508Y-103461811D01*
X137164151Y-103526590D01*
X137070829Y-103726720D01*
X137070825Y-103726729D01*
X137013676Y-103940013D01*
X137013674Y-103940023D01*
X136994429Y-104159999D01*
X136994429Y-104160000D01*
X137013674Y-104379976D01*
X137013676Y-104379986D01*
X137070825Y-104593270D01*
X137070830Y-104593284D01*
X137164148Y-104793405D01*
X137164151Y-104793411D01*
X137209508Y-104858187D01*
X137209508Y-104858188D01*
X137823602Y-104244094D01*
X137847042Y-104331571D01*
X137905561Y-104432930D01*
X137988320Y-104515689D01*
X138089679Y-104574208D01*
X138177155Y-104597647D01*
X137563060Y-105211740D01*
X137627839Y-105257098D01*
X137757031Y-105317342D01*
X137809470Y-105363514D01*
X137828622Y-105430708D01*
X137808406Y-105497589D01*
X137757031Y-105542106D01*
X137627590Y-105602465D01*
X137627588Y-105602466D01*
X137446627Y-105729175D01*
X137290425Y-105885377D01*
X137163716Y-106066338D01*
X137163715Y-106066340D01*
X137070357Y-106266548D01*
X137070354Y-106266554D01*
X137013180Y-106479929D01*
X137013179Y-106479937D01*
X136993927Y-106699997D01*
X136993927Y-106700002D01*
X137013179Y-106920062D01*
X137013180Y-106920070D01*
X137070354Y-107133445D01*
X137070355Y-107133447D01*
X137070356Y-107133450D01*
X137163716Y-107333662D01*
X137163718Y-107333666D01*
X137290420Y-107514615D01*
X137290425Y-107514621D01*
X137446628Y-107670824D01*
X137446634Y-107670829D01*
X137627583Y-107797531D01*
X137627585Y-107797532D01*
X137627588Y-107797534D01*
X137827800Y-107890894D01*
X138041182Y-107948070D01*
X138198373Y-107961822D01*
X138261248Y-107967323D01*
X138261250Y-107967323D01*
X138261252Y-107967323D01*
X138316267Y-107962509D01*
X138481318Y-107948070D01*
X138694700Y-107890894D01*
X138894912Y-107797534D01*
X139075870Y-107670826D01*
X139232076Y-107514620D01*
X139358784Y-107333662D01*
X139452144Y-107133450D01*
X139509320Y-106920068D01*
X139528573Y-106700000D01*
X139509320Y-106479932D01*
X139452144Y-106266550D01*
X139358784Y-106066339D01*
X139232076Y-105885380D01*
X139075870Y-105729174D01*
X139075866Y-105729171D01*
X139075865Y-105729170D01*
X138894916Y-105602468D01*
X138894912Y-105602466D01*
X138765468Y-105542105D01*
X138713029Y-105495932D01*
X138693877Y-105428739D01*
X138714093Y-105361858D01*
X138765469Y-105317340D01*
X138894666Y-105257095D01*
X138894667Y-105257094D01*
X138959438Y-105211741D01*
X138345345Y-104597647D01*
X138432821Y-104574208D01*
X138534180Y-104515689D01*
X138616939Y-104432930D01*
X138675458Y-104331571D01*
X138698897Y-104244094D01*
X139312991Y-104858188D01*
X139358344Y-104793417D01*
X139358350Y-104793407D01*
X139451669Y-104593284D01*
X139451674Y-104593270D01*
X139508823Y-104379986D01*
X139508825Y-104379976D01*
X139528071Y-104160000D01*
X139528071Y-104159999D01*
X139508825Y-103940023D01*
X139508823Y-103940013D01*
X139451674Y-103726729D01*
X139451670Y-103726720D01*
X139358346Y-103526586D01*
X139312991Y-103461811D01*
X139312990Y-103461810D01*
X138698897Y-104075904D01*
X138675458Y-103988429D01*
X138616939Y-103887070D01*
X138534180Y-103804311D01*
X138432821Y-103745792D01*
X138345344Y-103722352D01*
X138959438Y-103108258D01*
X138894661Y-103062901D01*
X138894655Y-103062898D01*
X138765469Y-103002658D01*
X138713029Y-102956486D01*
X138693877Y-102889293D01*
X138714093Y-102822411D01*
X138765469Y-102777894D01*
X138766061Y-102777618D01*
X138894912Y-102717534D01*
X139075870Y-102590826D01*
X139232076Y-102434620D01*
X139358784Y-102253662D01*
X139452144Y-102053450D01*
X139509320Y-101840068D01*
X139528573Y-101620000D01*
X139509320Y-101399932D01*
X139452144Y-101186550D01*
X139358784Y-100986339D01*
X139232076Y-100805380D01*
X139075870Y-100649174D01*
X139075866Y-100649171D01*
X139075865Y-100649170D01*
X138894916Y-100522468D01*
X138894908Y-100522464D01*
X138766061Y-100462382D01*
X138713621Y-100416210D01*
X138694469Y-100349017D01*
X138714685Y-100282135D01*
X138766061Y-100237618D01*
X138772052Y-100234824D01*
X138894912Y-100177534D01*
X139075870Y-100050826D01*
X139232076Y-99894620D01*
X139358784Y-99713662D01*
X139452144Y-99513450D01*
X139509320Y-99300068D01*
X139528573Y-99080000D01*
X139509320Y-98859932D01*
X139452144Y-98646550D01*
X139358784Y-98446339D01*
X139232076Y-98265380D01*
X139075870Y-98109174D01*
X139075866Y-98109171D01*
X139075865Y-98109170D01*
X138894916Y-97982468D01*
X138894908Y-97982464D01*
X138766061Y-97922382D01*
X138713621Y-97876210D01*
X138694469Y-97809017D01*
X138714685Y-97742135D01*
X138766061Y-97697618D01*
X138779681Y-97691267D01*
X138894912Y-97637534D01*
X139075870Y-97510826D01*
X139232076Y-97354620D01*
X139358784Y-97173662D01*
X139452144Y-96973450D01*
X139509320Y-96760068D01*
X139528573Y-96540000D01*
X139528393Y-96537948D01*
X139509320Y-96319937D01*
X139509320Y-96319932D01*
X139452144Y-96106550D01*
X139358784Y-95906339D01*
X139288222Y-95805565D01*
X139232077Y-95725381D01*
X139168055Y-95661359D01*
X139075870Y-95569174D01*
X139075866Y-95569171D01*
X139075865Y-95569170D01*
X138894916Y-95442468D01*
X138894908Y-95442464D01*
X138766061Y-95382382D01*
X138713621Y-95336210D01*
X138694469Y-95269017D01*
X138714685Y-95202135D01*
X138766061Y-95157618D01*
X138772052Y-95154824D01*
X138894912Y-95097534D01*
X139075870Y-94970826D01*
X139232076Y-94814620D01*
X139358784Y-94633662D01*
X139452144Y-94433450D01*
X139509320Y-94220068D01*
X139528573Y-94000000D01*
X139509320Y-93779932D01*
X139452144Y-93566550D01*
X139358784Y-93366339D01*
X139232076Y-93185380D01*
X139075870Y-93029174D01*
X139075866Y-93029171D01*
X139075865Y-93029170D01*
X138894916Y-92902468D01*
X138894908Y-92902464D01*
X138766061Y-92842382D01*
X138713621Y-92796210D01*
X138694469Y-92729017D01*
X138714685Y-92662135D01*
X138766061Y-92617618D01*
X138772052Y-92614824D01*
X138894912Y-92557534D01*
X139075870Y-92430826D01*
X139232076Y-92274620D01*
X139358784Y-92093662D01*
X139452144Y-91893450D01*
X139509320Y-91680068D01*
X139528573Y-91460000D01*
X139509320Y-91239932D01*
X139452144Y-91026550D01*
X139358784Y-90826339D01*
X139232076Y-90645380D01*
X139075870Y-90489174D01*
X139075866Y-90489171D01*
X139075865Y-90489170D01*
X138894916Y-90362468D01*
X138894912Y-90362466D01*
X138894910Y-90362465D01*
X138694700Y-90269106D01*
X138694697Y-90269105D01*
X138694695Y-90269104D01*
X138481320Y-90211930D01*
X138481312Y-90211929D01*
X138261252Y-90192677D01*
X138261248Y-90192677D01*
X138041187Y-90211929D01*
X138041179Y-90211930D01*
X137827804Y-90269104D01*
X137827798Y-90269107D01*
X137627590Y-90362465D01*
X137627588Y-90362466D01*
X137446627Y-90489175D01*
X137290425Y-90645377D01*
X137163716Y-90826338D01*
X137163715Y-90826340D01*
X137070357Y-91026548D01*
X137070354Y-91026554D01*
X137013180Y-91239929D01*
X137013179Y-91239937D01*
X136993927Y-91459997D01*
X86100500Y-91459997D01*
X86100500Y-86999996D01*
X149194435Y-86999996D01*
X149194435Y-87000003D01*
X149214630Y-87179249D01*
X149214631Y-87179254D01*
X149274211Y-87349523D01*
X149370185Y-87502263D01*
X149372445Y-87505097D01*
X149373334Y-87507275D01*
X149373889Y-87508158D01*
X149373734Y-87508255D01*
X149398855Y-87569783D01*
X149399500Y-87582412D01*
X149399500Y-94417587D01*
X149379815Y-94484626D01*
X149372450Y-94494896D01*
X149370186Y-94497734D01*
X149274211Y-94650476D01*
X149214631Y-94820745D01*
X149214630Y-94820750D01*
X149194435Y-94999996D01*
X149194435Y-95000003D01*
X149214630Y-95179249D01*
X149214631Y-95179254D01*
X149274211Y-95349523D01*
X149332613Y-95442468D01*
X149370184Y-95502262D01*
X149497738Y-95629816D01*
X149588080Y-95686582D01*
X149649828Y-95725381D01*
X149650478Y-95725789D01*
X149820745Y-95785368D01*
X149820750Y-95785369D01*
X149999996Y-95805565D01*
X150000000Y-95805565D01*
X150000004Y-95805565D01*
X150179249Y-95785369D01*
X150179252Y-95785368D01*
X150179255Y-95785368D01*
X150349522Y-95725789D01*
X150502262Y-95629816D01*
X150629816Y-95502262D01*
X150725789Y-95349522D01*
X150785368Y-95179255D01*
X150785369Y-95179249D01*
X150805565Y-95000003D01*
X150805565Y-94999996D01*
X150785369Y-94820750D01*
X150785368Y-94820745D01*
X150725788Y-94650476D01*
X150629813Y-94497734D01*
X150627550Y-94494896D01*
X150626659Y-94492715D01*
X150626111Y-94491842D01*
X150626264Y-94491745D01*
X150601144Y-94430209D01*
X150600500Y-94417587D01*
X150600500Y-87582412D01*
X150620185Y-87515373D01*
X150627555Y-87505097D01*
X150629810Y-87502267D01*
X150629816Y-87502262D01*
X150725789Y-87349522D01*
X150785368Y-87179255D01*
X150785369Y-87179249D01*
X150805565Y-87000003D01*
X150805565Y-86999996D01*
X150785369Y-86820750D01*
X150785368Y-86820745D01*
X150770573Y-86778464D01*
X150725789Y-86650478D01*
X150629816Y-86497738D01*
X150502262Y-86370184D01*
X150471492Y-86350850D01*
X150349523Y-86274211D01*
X150179254Y-86214631D01*
X150179249Y-86214630D01*
X150000004Y-86194435D01*
X149999996Y-86194435D01*
X149820750Y-86214630D01*
X149820745Y-86214631D01*
X149650476Y-86274211D01*
X149497737Y-86370184D01*
X149370184Y-86497737D01*
X149274211Y-86650476D01*
X149214631Y-86820745D01*
X149214630Y-86820750D01*
X149194435Y-86999996D01*
X86100500Y-86999996D01*
X86100500Y-80875889D01*
X89387000Y-80875889D01*
X89387000Y-81049110D01*
X89402624Y-81147761D01*
X89414098Y-81220201D01*
X89467627Y-81384945D01*
X89546268Y-81539288D01*
X89648086Y-81679428D01*
X89770572Y-81801914D01*
X89910712Y-81903732D01*
X90065055Y-81982373D01*
X90229799Y-82035902D01*
X90400889Y-82063000D01*
X90400890Y-82063000D01*
X90574110Y-82063000D01*
X90574111Y-82063000D01*
X90745201Y-82035902D01*
X90909945Y-81982373D01*
X91064288Y-81903732D01*
X91204428Y-81801914D01*
X91326914Y-81679428D01*
X91428732Y-81539288D01*
X91507373Y-81384945D01*
X91560902Y-81220201D01*
X91588000Y-81049111D01*
X91588000Y-80875889D01*
X91578354Y-80814986D01*
X93317000Y-80814986D01*
X93317000Y-81110013D01*
X93340080Y-81285316D01*
X93355507Y-81402493D01*
X93429712Y-81679430D01*
X93431861Y-81687451D01*
X93431864Y-81687461D01*
X93544754Y-81960000D01*
X93544758Y-81960010D01*
X93692261Y-82215493D01*
X93871852Y-82449540D01*
X93871858Y-82449547D01*
X94080452Y-82658141D01*
X94080459Y-82658147D01*
X94314506Y-82837738D01*
X94569989Y-82985241D01*
X94569990Y-82985241D01*
X94569993Y-82985243D01*
X94842548Y-83098139D01*
X95127507Y-83174493D01*
X95419994Y-83213000D01*
X95420001Y-83213000D01*
X95714999Y-83213000D01*
X95715006Y-83213000D01*
X96007493Y-83174493D01*
X96292452Y-83098139D01*
X96565007Y-82985243D01*
X96820494Y-82837738D01*
X97054542Y-82658146D01*
X97263146Y-82449542D01*
X97442738Y-82215494D01*
X97590243Y-81960007D01*
X97703139Y-81687452D01*
X97779493Y-81402493D01*
X97818000Y-81110006D01*
X97818000Y-80875889D01*
X99547000Y-80875889D01*
X99547000Y-81049110D01*
X99562624Y-81147761D01*
X99574098Y-81220201D01*
X99627627Y-81384945D01*
X99706268Y-81539288D01*
X99808086Y-81679428D01*
X99930572Y-81801914D01*
X100070712Y-81903732D01*
X100225055Y-81982373D01*
X100389799Y-82035902D01*
X100560889Y-82063000D01*
X100560890Y-82063000D01*
X100734110Y-82063000D01*
X100734111Y-82063000D01*
X100905201Y-82035902D01*
X101069945Y-81982373D01*
X101224288Y-81903732D01*
X101364428Y-81801914D01*
X101486914Y-81679428D01*
X101588732Y-81539288D01*
X101667373Y-81384945D01*
X101720902Y-81220201D01*
X101748000Y-81049111D01*
X101748000Y-80875889D01*
X108437000Y-80875889D01*
X108437000Y-81049110D01*
X108452624Y-81147761D01*
X108464098Y-81220201D01*
X108517627Y-81384945D01*
X108596268Y-81539288D01*
X108698086Y-81679428D01*
X108820572Y-81801914D01*
X108960712Y-81903732D01*
X109115055Y-81982373D01*
X109279799Y-82035902D01*
X109450889Y-82063000D01*
X109450890Y-82063000D01*
X109624110Y-82063000D01*
X109624111Y-82063000D01*
X109795201Y-82035902D01*
X109959945Y-81982373D01*
X110114288Y-81903732D01*
X110254428Y-81801914D01*
X110376914Y-81679428D01*
X110478732Y-81539288D01*
X110557373Y-81384945D01*
X110610902Y-81220201D01*
X110638000Y-81049111D01*
X110638000Y-80875889D01*
X110628354Y-80814986D01*
X112367000Y-80814986D01*
X112367000Y-81110013D01*
X112390080Y-81285316D01*
X112405507Y-81402493D01*
X112479712Y-81679430D01*
X112481861Y-81687451D01*
X112481864Y-81687461D01*
X112594754Y-81960000D01*
X112594758Y-81960010D01*
X112742261Y-82215493D01*
X112921852Y-82449540D01*
X112921858Y-82449547D01*
X113130452Y-82658141D01*
X113130459Y-82658147D01*
X113364506Y-82837738D01*
X113619989Y-82985241D01*
X113619990Y-82985241D01*
X113619993Y-82985243D01*
X113892548Y-83098139D01*
X114177507Y-83174493D01*
X114469994Y-83213000D01*
X114470001Y-83213000D01*
X114764999Y-83213000D01*
X114765006Y-83213000D01*
X115057493Y-83174493D01*
X115342452Y-83098139D01*
X115615007Y-82985243D01*
X115870494Y-82837738D01*
X116104542Y-82658146D01*
X116313146Y-82449542D01*
X116492738Y-82215494D01*
X116640243Y-81960007D01*
X116753139Y-81687452D01*
X116829493Y-81402493D01*
X116868000Y-81110006D01*
X116868000Y-80875889D01*
X118597000Y-80875889D01*
X118597000Y-81049110D01*
X118612624Y-81147761D01*
X118624098Y-81220201D01*
X118677627Y-81384945D01*
X118756268Y-81539288D01*
X118858086Y-81679428D01*
X118980572Y-81801914D01*
X119120712Y-81903732D01*
X119275055Y-81982373D01*
X119439799Y-82035902D01*
X119610889Y-82063000D01*
X119610890Y-82063000D01*
X119784110Y-82063000D01*
X119784111Y-82063000D01*
X119955201Y-82035902D01*
X120119945Y-81982373D01*
X120274288Y-81903732D01*
X120414428Y-81801914D01*
X120536914Y-81679428D01*
X120638732Y-81539288D01*
X120717373Y-81384945D01*
X120770902Y-81220201D01*
X120798000Y-81049111D01*
X120798000Y-80875889D01*
X120770902Y-80704799D01*
X120717373Y-80540055D01*
X120638732Y-80385712D01*
X120536914Y-80245572D01*
X120414428Y-80123086D01*
X120274288Y-80021268D01*
X120119945Y-79942627D01*
X119955201Y-79889098D01*
X119955199Y-79889097D01*
X119955198Y-79889097D01*
X119806771Y-79865589D01*
X119784111Y-79862000D01*
X119610889Y-79862000D01*
X119588229Y-79865589D01*
X119439802Y-79889097D01*
X119275052Y-79942628D01*
X119120711Y-80021268D01*
X119073322Y-80055699D01*
X118980572Y-80123086D01*
X118980570Y-80123088D01*
X118980569Y-80123088D01*
X118858088Y-80245569D01*
X118858088Y-80245570D01*
X118858086Y-80245572D01*
X118814359Y-80305756D01*
X118756268Y-80385711D01*
X118677628Y-80540052D01*
X118624097Y-80704802D01*
X118597000Y-80875889D01*
X116868000Y-80875889D01*
X116868000Y-80814994D01*
X116829493Y-80522507D01*
X116753139Y-80237548D01*
X116640243Y-79964993D01*
X116630949Y-79948896D01*
X116492738Y-79709506D01*
X116313147Y-79475459D01*
X116313141Y-79475452D01*
X116104547Y-79266858D01*
X116104540Y-79266852D01*
X115870493Y-79087261D01*
X115615010Y-78939758D01*
X115615000Y-78939754D01*
X115342461Y-78826864D01*
X115342454Y-78826862D01*
X115342452Y-78826861D01*
X115057493Y-78750507D01*
X115008613Y-78744071D01*
X114765013Y-78712000D01*
X114765006Y-78712000D01*
X114469994Y-78712000D01*
X114469986Y-78712000D01*
X114191585Y-78748653D01*
X114177507Y-78750507D01*
X113892548Y-78826861D01*
X113892538Y-78826864D01*
X113619999Y-78939754D01*
X113619989Y-78939758D01*
X113364506Y-79087261D01*
X113130459Y-79266852D01*
X113130452Y-79266858D01*
X112921858Y-79475452D01*
X112921852Y-79475459D01*
X112742261Y-79709506D01*
X112594758Y-79964989D01*
X112594754Y-79964999D01*
X112481864Y-80237538D01*
X112481861Y-80237548D01*
X112405508Y-80522504D01*
X112405506Y-80522515D01*
X112367000Y-80814986D01*
X110628354Y-80814986D01*
X110610902Y-80704799D01*
X110557373Y-80540055D01*
X110478732Y-80385712D01*
X110376914Y-80245572D01*
X110318056Y-80186714D01*
X110284571Y-80125391D01*
X110289555Y-80055699D01*
X110331427Y-79999766D01*
X110396891Y-79975349D01*
X110434684Y-79978459D01*
X110556428Y-80007687D01*
X110807500Y-80027447D01*
X111058572Y-80007687D01*
X111303456Y-79948896D01*
X111536131Y-79852519D01*
X111750861Y-79720932D01*
X111750863Y-79720930D01*
X111751680Y-79720232D01*
X111131525Y-79100078D01*
X111162758Y-79087141D01*
X111285597Y-79005063D01*
X111390063Y-78900597D01*
X111472141Y-78777758D01*
X111485078Y-78746525D01*
X112105232Y-79366680D01*
X112105930Y-79365863D01*
X112105932Y-79365861D01*
X112237519Y-79151131D01*
X112333896Y-78918456D01*
X112392687Y-78673572D01*
X112412447Y-78422500D01*
X112392687Y-78171427D01*
X112333896Y-77926543D01*
X112237519Y-77693868D01*
X112105929Y-77479134D01*
X112105233Y-77478319D01*
X112105232Y-77478319D01*
X111485077Y-78098473D01*
X111472141Y-78067242D01*
X111390063Y-77944403D01*
X111285597Y-77839937D01*
X111162758Y-77757859D01*
X111131523Y-77744921D01*
X111751679Y-77124766D01*
X111750862Y-77124068D01*
X111536131Y-76992480D01*
X111303456Y-76896103D01*
X111058572Y-76837312D01*
X110807500Y-76817552D01*
X110556427Y-76837312D01*
X110311543Y-76896103D01*
X110078868Y-76992480D01*
X109864137Y-77124067D01*
X109863318Y-77124766D01*
X110483474Y-77744921D01*
X110452242Y-77757859D01*
X110329403Y-77839937D01*
X110224937Y-77944403D01*
X110142859Y-78067242D01*
X110129921Y-78098474D01*
X109509766Y-77478318D01*
X109509067Y-77479137D01*
X109377480Y-77693868D01*
X109281103Y-77926543D01*
X109222312Y-78171427D01*
X109202552Y-78422500D01*
X109222312Y-78673572D01*
X109281103Y-78918456D01*
X109377480Y-79151131D01*
X109509068Y-79365862D01*
X109509766Y-79366679D01*
X110129921Y-78746524D01*
X110142859Y-78777758D01*
X110224937Y-78900597D01*
X110329403Y-79005063D01*
X110452242Y-79087141D01*
X110483474Y-79100077D01*
X109863319Y-79720232D01*
X109864489Y-79750039D01*
X109847448Y-79817799D01*
X109796480Y-79865589D01*
X109727764Y-79878238D01*
X109721186Y-79877375D01*
X109646771Y-79865589D01*
X109624111Y-79862000D01*
X109450889Y-79862000D01*
X109428229Y-79865589D01*
X109279802Y-79889097D01*
X109115052Y-79942628D01*
X108960711Y-80021268D01*
X108913322Y-80055699D01*
X108820572Y-80123086D01*
X108820570Y-80123088D01*
X108820569Y-80123088D01*
X108698088Y-80245569D01*
X108698088Y-80245570D01*
X108698086Y-80245572D01*
X108654359Y-80305756D01*
X108596268Y-80385711D01*
X108517628Y-80540052D01*
X108464097Y-80704802D01*
X108437000Y-80875889D01*
X101748000Y-80875889D01*
X101720902Y-80704799D01*
X101667373Y-80540055D01*
X101588732Y-80385712D01*
X101486914Y-80245572D01*
X101364428Y-80123086D01*
X101224288Y-80021268D01*
X101069945Y-79942627D01*
X100905201Y-79889098D01*
X100905199Y-79889097D01*
X100905198Y-79889097D01*
X100756771Y-79865589D01*
X100734111Y-79862000D01*
X100560889Y-79862000D01*
X100538229Y-79865589D01*
X100389802Y-79889097D01*
X100225052Y-79942628D01*
X100070711Y-80021268D01*
X100023322Y-80055699D01*
X99930572Y-80123086D01*
X99930570Y-80123088D01*
X99930569Y-80123088D01*
X99808088Y-80245569D01*
X99808088Y-80245570D01*
X99808086Y-80245572D01*
X99764359Y-80305756D01*
X99706268Y-80385711D01*
X99627628Y-80540052D01*
X99574097Y-80704802D01*
X99547000Y-80875889D01*
X97818000Y-80875889D01*
X97818000Y-80814994D01*
X97779493Y-80522507D01*
X97703139Y-80237548D01*
X97590243Y-79964993D01*
X97580949Y-79948896D01*
X97442738Y-79709506D01*
X97263147Y-79475459D01*
X97263141Y-79475452D01*
X97054547Y-79266858D01*
X97054540Y-79266852D01*
X96820493Y-79087261D01*
X96565010Y-78939758D01*
X96565000Y-78939754D01*
X96292461Y-78826864D01*
X96292454Y-78826862D01*
X96292452Y-78826861D01*
X96007493Y-78750507D01*
X95958613Y-78744071D01*
X95715013Y-78712000D01*
X95715006Y-78712000D01*
X95419994Y-78712000D01*
X95419986Y-78712000D01*
X95141585Y-78748653D01*
X95127507Y-78750507D01*
X94842548Y-78826861D01*
X94842538Y-78826864D01*
X94569999Y-78939754D01*
X94569989Y-78939758D01*
X94314506Y-79087261D01*
X94080459Y-79266852D01*
X94080452Y-79266858D01*
X93871858Y-79475452D01*
X93871852Y-79475459D01*
X93692261Y-79709506D01*
X93544758Y-79964989D01*
X93544754Y-79964999D01*
X93431864Y-80237538D01*
X93431861Y-80237548D01*
X93355508Y-80522504D01*
X93355506Y-80522515D01*
X93317000Y-80814986D01*
X91578354Y-80814986D01*
X91560902Y-80704799D01*
X91507373Y-80540055D01*
X91428732Y-80385712D01*
X91326914Y-80245572D01*
X91268056Y-80186714D01*
X91234571Y-80125391D01*
X91239555Y-80055699D01*
X91281427Y-79999766D01*
X91346891Y-79975349D01*
X91384684Y-79978459D01*
X91506428Y-80007687D01*
X91757500Y-80027447D01*
X92008572Y-80007687D01*
X92253456Y-79948896D01*
X92486131Y-79852519D01*
X92700861Y-79720932D01*
X92700863Y-79720930D01*
X92701680Y-79720232D01*
X92081525Y-79100078D01*
X92112758Y-79087141D01*
X92235597Y-79005063D01*
X92340063Y-78900597D01*
X92422141Y-78777758D01*
X92435078Y-78746525D01*
X93055232Y-79366680D01*
X93055930Y-79365863D01*
X93055932Y-79365861D01*
X93187519Y-79151131D01*
X93283896Y-78918456D01*
X93342687Y-78673572D01*
X93362447Y-78422500D01*
X93342687Y-78171427D01*
X93283896Y-77926543D01*
X93187519Y-77693868D01*
X93055929Y-77479134D01*
X93055233Y-77478319D01*
X93055232Y-77478319D01*
X92435077Y-78098473D01*
X92422141Y-78067242D01*
X92340063Y-77944403D01*
X92235597Y-77839937D01*
X92112758Y-77757859D01*
X92081523Y-77744921D01*
X92701679Y-77124766D01*
X92700862Y-77124068D01*
X92486131Y-76992480D01*
X92253456Y-76896103D01*
X92008572Y-76837312D01*
X91757500Y-76817552D01*
X91506427Y-76837312D01*
X91261543Y-76896103D01*
X91028868Y-76992480D01*
X90814137Y-77124067D01*
X90813318Y-77124766D01*
X91433474Y-77744921D01*
X91402242Y-77757859D01*
X91279403Y-77839937D01*
X91174937Y-77944403D01*
X91092859Y-78067242D01*
X91079921Y-78098474D01*
X90459766Y-77478318D01*
X90459067Y-77479137D01*
X90327480Y-77693868D01*
X90231103Y-77926543D01*
X90172312Y-78171427D01*
X90152552Y-78422500D01*
X90172312Y-78673572D01*
X90231103Y-78918456D01*
X90327480Y-79151131D01*
X90459068Y-79365862D01*
X90459766Y-79366679D01*
X91079921Y-78746524D01*
X91092859Y-78777758D01*
X91174937Y-78900597D01*
X91279403Y-79005063D01*
X91402242Y-79087141D01*
X91433474Y-79100077D01*
X90813319Y-79720232D01*
X90814489Y-79750039D01*
X90797448Y-79817799D01*
X90746480Y-79865589D01*
X90677764Y-79878238D01*
X90671186Y-79877375D01*
X90596771Y-79865589D01*
X90574111Y-79862000D01*
X90400889Y-79862000D01*
X90378229Y-79865589D01*
X90229802Y-79889097D01*
X90065052Y-79942628D01*
X89910711Y-80021268D01*
X89863322Y-80055699D01*
X89770572Y-80123086D01*
X89770570Y-80123088D01*
X89770569Y-80123088D01*
X89648088Y-80245569D01*
X89648088Y-80245570D01*
X89648086Y-80245572D01*
X89604359Y-80305756D01*
X89546268Y-80385711D01*
X89467628Y-80540052D01*
X89414097Y-80704802D01*
X89387000Y-80875889D01*
X86100500Y-80875889D01*
X86100500Y-75882500D01*
X96502051Y-75882500D01*
X96521817Y-76133651D01*
X96580626Y-76378610D01*
X96677033Y-76611359D01*
X96808660Y-76826153D01*
X96808661Y-76826156D01*
X96848183Y-76872430D01*
X96972276Y-77017724D01*
X97096788Y-77124067D01*
X97163843Y-77181338D01*
X97163846Y-77181339D01*
X97378640Y-77312966D01*
X97547166Y-77382771D01*
X97611389Y-77409373D01*
X97856352Y-77468183D01*
X98107500Y-77487949D01*
X98358648Y-77468183D01*
X98603611Y-77409373D01*
X98836359Y-77312966D01*
X99051159Y-77181336D01*
X99242724Y-77017724D01*
X99406336Y-76826159D01*
X99537966Y-76611359D01*
X99634373Y-76378611D01*
X99693183Y-76133648D01*
X99712949Y-75882500D01*
X115552051Y-75882500D01*
X115571817Y-76133651D01*
X115630626Y-76378610D01*
X115727033Y-76611359D01*
X115858660Y-76826153D01*
X115858661Y-76826156D01*
X115898183Y-76872430D01*
X116022276Y-77017724D01*
X116146788Y-77124067D01*
X116213843Y-77181338D01*
X116213846Y-77181339D01*
X116428640Y-77312966D01*
X116597166Y-77382771D01*
X116661389Y-77409373D01*
X116906352Y-77468183D01*
X117157500Y-77487949D01*
X117408648Y-77468183D01*
X117653611Y-77409373D01*
X117886359Y-77312966D01*
X118101159Y-77181336D01*
X118292724Y-77017724D01*
X118456336Y-76826159D01*
X118587966Y-76611359D01*
X118684373Y-76378611D01*
X118743183Y-76133648D01*
X118762949Y-75882500D01*
X118743183Y-75631352D01*
X118684373Y-75386389D01*
X118625665Y-75244655D01*
X136322500Y-75244655D01*
X136322500Y-75950000D01*
X137175743Y-75950000D01*
X137166229Y-75966479D01*
X137125000Y-76120350D01*
X137125000Y-76279650D01*
X137166229Y-76433521D01*
X137175743Y-76450000D01*
X136322500Y-76450000D01*
X136322500Y-77155344D01*
X136328901Y-77214872D01*
X136328903Y-77214879D01*
X136379145Y-77349586D01*
X136379149Y-77349593D01*
X136465309Y-77464687D01*
X136465312Y-77464690D01*
X136580406Y-77550850D01*
X136580413Y-77550854D01*
X136715120Y-77601096D01*
X136715127Y-77601098D01*
X136774655Y-77607499D01*
X136774672Y-77607500D01*
X137480000Y-77607500D01*
X137480000Y-76754256D01*
X137496479Y-76763771D01*
X137650350Y-76805000D01*
X137809650Y-76805000D01*
X137963521Y-76763771D01*
X137980000Y-76754256D01*
X137980000Y-77607500D01*
X138685328Y-77607500D01*
X138685344Y-77607499D01*
X138744872Y-77601098D01*
X138744879Y-77601096D01*
X138879586Y-77550854D01*
X138879593Y-77550850D01*
X138994687Y-77464690D01*
X138994690Y-77464687D01*
X139080850Y-77349593D01*
X139080855Y-77349584D01*
X139106464Y-77280923D01*
X139148335Y-77224989D01*
X139213799Y-77200571D01*
X139282072Y-77215422D01*
X139308944Y-77236417D01*
X139309349Y-77235979D01*
X139313115Y-77239446D01*
X139313119Y-77239450D01*
X139313122Y-77239452D01*
X139313125Y-77239455D01*
X139497253Y-77382768D01*
X139497257Y-77382771D01*
X139497259Y-77382772D01*
X139497262Y-77382774D01*
X139616560Y-77447334D01*
X139702474Y-77493828D01*
X139923172Y-77569594D01*
X140153330Y-77608000D01*
X140386670Y-77608000D01*
X140616828Y-77569594D01*
X140672798Y-77550378D01*
X140742595Y-77547227D01*
X140800742Y-77579977D01*
X142241284Y-79020520D01*
X142241286Y-79020521D01*
X142241290Y-79020524D01*
X142378209Y-79099573D01*
X142378216Y-79099577D01*
X142530943Y-79140501D01*
X142530945Y-79140501D01*
X142696654Y-79140501D01*
X142696670Y-79140500D01*
X151388629Y-79140500D01*
X151455668Y-79160185D01*
X151487583Y-79189773D01*
X151610270Y-79352238D01*
X151774687Y-79502123D01*
X151774689Y-79502125D01*
X151963845Y-79619245D01*
X151963846Y-79619245D01*
X151963849Y-79619247D01*
X152171310Y-79699618D01*
X152175834Y-79700463D01*
X152238115Y-79732131D01*
X152273388Y-79792443D01*
X152270455Y-79862251D01*
X152240730Y-79910033D01*
X148995084Y-83155681D01*
X148933761Y-83189166D01*
X148907403Y-83192000D01*
X141694169Y-83192000D01*
X141694153Y-83191999D01*
X141686557Y-83191999D01*
X141528443Y-83191999D01*
X141421087Y-83220765D01*
X141375710Y-83232924D01*
X141375709Y-83232925D01*
X141325596Y-83261859D01*
X141325595Y-83261860D01*
X141282189Y-83286920D01*
X141238785Y-83311979D01*
X141238782Y-83311981D01*
X141126978Y-83423786D01*
X140930743Y-83620020D01*
X140869420Y-83653505D01*
X140802800Y-83649620D01*
X140746832Y-83630406D01*
X140516670Y-83592000D01*
X140283330Y-83592000D01*
X140053169Y-83630406D01*
X139832481Y-83706169D01*
X139832467Y-83706175D01*
X139627262Y-83817225D01*
X139627253Y-83817231D01*
X139443125Y-83960544D01*
X139439349Y-83964021D01*
X139438420Y-83963012D01*
X139383959Y-83995725D01*
X139314122Y-83993608D01*
X139256515Y-83954070D01*
X139236464Y-83919077D01*
X139210854Y-83850413D01*
X139210850Y-83850406D01*
X139124690Y-83735312D01*
X139124687Y-83735309D01*
X139009593Y-83649149D01*
X139009586Y-83649145D01*
X138874879Y-83598903D01*
X138874872Y-83598901D01*
X138815344Y-83592500D01*
X138110000Y-83592500D01*
X138110000Y-84445743D01*
X138093521Y-84436229D01*
X137939650Y-84395000D01*
X137780350Y-84395000D01*
X137626479Y-84436229D01*
X137610000Y-84445743D01*
X137610000Y-83592500D01*
X136904655Y-83592500D01*
X136845127Y-83598901D01*
X136845120Y-83598903D01*
X136710413Y-83649145D01*
X136710406Y-83649149D01*
X136595312Y-83735309D01*
X136595309Y-83735312D01*
X136509149Y-83850406D01*
X136509145Y-83850413D01*
X136458903Y-83985120D01*
X136458901Y-83985127D01*
X136452500Y-84044655D01*
X136452500Y-84750000D01*
X137305743Y-84750000D01*
X137296229Y-84766479D01*
X137255000Y-84920350D01*
X137255000Y-85079650D01*
X137296229Y-85233521D01*
X137305743Y-85250000D01*
X136452500Y-85250000D01*
X136452500Y-85955344D01*
X136458901Y-86014872D01*
X136458903Y-86014879D01*
X136509145Y-86149586D01*
X136509149Y-86149593D01*
X136595309Y-86264687D01*
X136595312Y-86264690D01*
X136710406Y-86350850D01*
X136710413Y-86350854D01*
X136845120Y-86401096D01*
X136845127Y-86401098D01*
X136904655Y-86407499D01*
X136904672Y-86407500D01*
X137610000Y-86407500D01*
X137610000Y-85554256D01*
X137626479Y-85563771D01*
X137780350Y-85605000D01*
X137939650Y-85605000D01*
X138093521Y-85563771D01*
X138110000Y-85554256D01*
X138110000Y-86407500D01*
X138815328Y-86407500D01*
X138815344Y-86407499D01*
X138874872Y-86401098D01*
X138874879Y-86401096D01*
X139009586Y-86350854D01*
X139009593Y-86350850D01*
X139124687Y-86264690D01*
X139124690Y-86264687D01*
X139210850Y-86149593D01*
X139210855Y-86149584D01*
X139236464Y-86080923D01*
X139278335Y-86024989D01*
X139343799Y-86000571D01*
X139412072Y-86015422D01*
X139438944Y-86036417D01*
X139439349Y-86035979D01*
X139443115Y-86039446D01*
X139443119Y-86039450D01*
X139443122Y-86039452D01*
X139443125Y-86039455D01*
X139584621Y-86149586D01*
X139627257Y-86182771D01*
X139627259Y-86182772D01*
X139627262Y-86182774D01*
X139686131Y-86214632D01*
X139832474Y-86293828D01*
X140053172Y-86369594D01*
X140283330Y-86408000D01*
X140516670Y-86408000D01*
X140746828Y-86369594D01*
X140967526Y-86293828D01*
X141172743Y-86182771D01*
X141356881Y-86039450D01*
X141514918Y-85867776D01*
X141642543Y-85672431D01*
X141736275Y-85458744D01*
X141793557Y-85232544D01*
X141806820Y-85072489D01*
X141812826Y-85000000D01*
X141812826Y-84999994D01*
X141793558Y-84767464D01*
X141793557Y-84767460D01*
X141793557Y-84767456D01*
X141759073Y-84631284D01*
X141747854Y-84586979D01*
X141750478Y-84517158D01*
X141780379Y-84468856D01*
X141819918Y-84429318D01*
X141881241Y-84395833D01*
X141907598Y-84393000D01*
X143698500Y-84393000D01*
X143765539Y-84412685D01*
X143811294Y-84465489D01*
X143822500Y-84517000D01*
X143822500Y-84750000D01*
X144675743Y-84750000D01*
X144666229Y-84766479D01*
X144625000Y-84920350D01*
X144625000Y-85079650D01*
X144666229Y-85233521D01*
X144675743Y-85250000D01*
X143822500Y-85250000D01*
X143822500Y-85955344D01*
X143828901Y-86014872D01*
X143828903Y-86014879D01*
X143879145Y-86149586D01*
X143879149Y-86149593D01*
X143965309Y-86264687D01*
X143965312Y-86264690D01*
X144080406Y-86350850D01*
X144080413Y-86350854D01*
X144215120Y-86401096D01*
X144215127Y-86401098D01*
X144274655Y-86407499D01*
X144274672Y-86407500D01*
X144980000Y-86407500D01*
X144980000Y-85554256D01*
X144996479Y-85563771D01*
X145150350Y-85605000D01*
X145309650Y-85605000D01*
X145463521Y-85563771D01*
X145480000Y-85554256D01*
X145480000Y-86407500D01*
X146185328Y-86407500D01*
X146185344Y-86407499D01*
X146244872Y-86401098D01*
X146244879Y-86401096D01*
X146379586Y-86350854D01*
X146379593Y-86350850D01*
X146494687Y-86264690D01*
X146494690Y-86264687D01*
X146580850Y-86149593D01*
X146580855Y-86149584D01*
X146606464Y-86080923D01*
X146648335Y-86024989D01*
X146713799Y-86000571D01*
X146782072Y-86015422D01*
X146808944Y-86036417D01*
X146809349Y-86035979D01*
X146813115Y-86039446D01*
X146813119Y-86039450D01*
X146813122Y-86039452D01*
X146813125Y-86039455D01*
X146954621Y-86149586D01*
X146997257Y-86182771D01*
X146997259Y-86182772D01*
X146997262Y-86182774D01*
X147056131Y-86214632D01*
X147202474Y-86293828D01*
X147423172Y-86369594D01*
X147653330Y-86408000D01*
X147886670Y-86408000D01*
X148116828Y-86369594D01*
X148337526Y-86293828D01*
X148542743Y-86182771D01*
X148726881Y-86039450D01*
X148884918Y-85867776D01*
X149012543Y-85672431D01*
X149012543Y-85672429D01*
X149012546Y-85672426D01*
X149014985Y-85667920D01*
X149016540Y-85668761D01*
X149056494Y-85621214D01*
X149123227Y-85600514D01*
X149125108Y-85600500D01*
X152127177Y-85600500D01*
X152194216Y-85620185D01*
X152239971Y-85672989D01*
X152249915Y-85742147D01*
X152220890Y-85805703D01*
X152171971Y-85840127D01*
X152171315Y-85840381D01*
X152171310Y-85840382D01*
X151999943Y-85906769D01*
X151963851Y-85920752D01*
X151963845Y-85920754D01*
X151774689Y-86037874D01*
X151774687Y-86037876D01*
X151610270Y-86187761D01*
X151476193Y-86365308D01*
X151476188Y-86365316D01*
X151377025Y-86564461D01*
X151377019Y-86564476D01*
X151316135Y-86778462D01*
X151316134Y-86778464D01*
X151295607Y-86999999D01*
X151295607Y-87000000D01*
X151316134Y-87221535D01*
X151316135Y-87221537D01*
X151377019Y-87435523D01*
X151377025Y-87435538D01*
X151476188Y-87634683D01*
X151476193Y-87634691D01*
X151610270Y-87812238D01*
X151774687Y-87962123D01*
X151774689Y-87962125D01*
X151905818Y-88043316D01*
X151952454Y-88095344D01*
X151963558Y-88164325D01*
X151947929Y-88210742D01*
X151911287Y-88274209D01*
X151911286Y-88274210D01*
X151879673Y-88328965D01*
X151838749Y-88481693D01*
X151838749Y-88481695D01*
X151838749Y-88649796D01*
X151838750Y-88649809D01*
X151838750Y-97931330D01*
X151838749Y-97931348D01*
X151838749Y-98097054D01*
X151838748Y-98097054D01*
X151838749Y-98097057D01*
X151879673Y-98249785D01*
X151879674Y-98249786D01*
X151888676Y-98265378D01*
X151888677Y-98265380D01*
X151958727Y-98386712D01*
X151958731Y-98386717D01*
X152077599Y-98505585D01*
X152077605Y-98505590D01*
X152240334Y-98668319D01*
X152273819Y-98729642D01*
X152272428Y-98788092D01*
X152253182Y-98859923D01*
X152253179Y-98859937D01*
X152233927Y-99079997D01*
X152233927Y-99080002D01*
X152253179Y-99300062D01*
X152253180Y-99300070D01*
X152310354Y-99513445D01*
X152310355Y-99513447D01*
X152310356Y-99513450D01*
X152403716Y-99713662D01*
X152403718Y-99713666D01*
X152530420Y-99894615D01*
X152530425Y-99894621D01*
X152686628Y-100050824D01*
X152686634Y-100050829D01*
X152867583Y-100177531D01*
X152867585Y-100177532D01*
X152867588Y-100177534D01*
X152986998Y-100233215D01*
X152996439Y-100237618D01*
X153048878Y-100283790D01*
X153068030Y-100350984D01*
X153047814Y-100417865D01*
X152996439Y-100462382D01*
X152867590Y-100522465D01*
X152867588Y-100522466D01*
X152686627Y-100649175D01*
X152530425Y-100805377D01*
X152403716Y-100986338D01*
X152403715Y-100986340D01*
X152310357Y-101186548D01*
X152310354Y-101186554D01*
X152253180Y-101399929D01*
X152253179Y-101399937D01*
X152233927Y-101619997D01*
X152233927Y-101620002D01*
X152253179Y-101840062D01*
X152253180Y-101840070D01*
X152310354Y-102053445D01*
X152310355Y-102053447D01*
X152310356Y-102053450D01*
X152354508Y-102148135D01*
X152403716Y-102253662D01*
X152403718Y-102253666D01*
X152530420Y-102434615D01*
X152530425Y-102434621D01*
X152686628Y-102590824D01*
X152686634Y-102590829D01*
X152867583Y-102717531D01*
X152867585Y-102717532D01*
X152867588Y-102717534D01*
X152986998Y-102773215D01*
X152996439Y-102777618D01*
X153048878Y-102823790D01*
X153068030Y-102890984D01*
X153047814Y-102957865D01*
X152996439Y-103002382D01*
X152867590Y-103062465D01*
X152867588Y-103062466D01*
X152686627Y-103189175D01*
X152530425Y-103345377D01*
X152403716Y-103526338D01*
X152403715Y-103526340D01*
X152310357Y-103726548D01*
X152310354Y-103726554D01*
X152253180Y-103939929D01*
X152253179Y-103939937D01*
X152233927Y-104159997D01*
X152233927Y-104160002D01*
X152253179Y-104380062D01*
X152253180Y-104380070D01*
X152310354Y-104593445D01*
X152310355Y-104593447D01*
X152310356Y-104593450D01*
X152315509Y-104604500D01*
X152403716Y-104793662D01*
X152403718Y-104793666D01*
X152530420Y-104974615D01*
X152530425Y-104974621D01*
X152686628Y-105130824D01*
X152686634Y-105130829D01*
X152867583Y-105257531D01*
X152867585Y-105257532D01*
X152867588Y-105257534D01*
X152986998Y-105313215D01*
X152996439Y-105317618D01*
X153048878Y-105363790D01*
X153068030Y-105430984D01*
X153047814Y-105497865D01*
X152996439Y-105542382D01*
X152867590Y-105602465D01*
X152867588Y-105602466D01*
X152686627Y-105729175D01*
X152530425Y-105885377D01*
X152403716Y-106066338D01*
X152403715Y-106066340D01*
X152310357Y-106266548D01*
X152310354Y-106266554D01*
X152253180Y-106479929D01*
X152253179Y-106479937D01*
X152233927Y-106699997D01*
X152233927Y-106700002D01*
X152253179Y-106920062D01*
X152253180Y-106920070D01*
X152310354Y-107133445D01*
X152310355Y-107133447D01*
X152310356Y-107133450D01*
X152403716Y-107333662D01*
X152403718Y-107333666D01*
X152530420Y-107514615D01*
X152530425Y-107514621D01*
X152686628Y-107670824D01*
X152686634Y-107670829D01*
X152867583Y-107797531D01*
X152867585Y-107797532D01*
X152867588Y-107797534D01*
X153067800Y-107890894D01*
X153281182Y-107948070D01*
X153438373Y-107961822D01*
X153501248Y-107967323D01*
X153501250Y-107967323D01*
X153501252Y-107967323D01*
X153556267Y-107962509D01*
X153721318Y-107948070D01*
X153934700Y-107890894D01*
X154134912Y-107797534D01*
X154315870Y-107670826D01*
X154472076Y-107514620D01*
X154598784Y-107333662D01*
X154692144Y-107133450D01*
X154749320Y-106920068D01*
X154768573Y-106700000D01*
X154749320Y-106479932D01*
X154692144Y-106266550D01*
X154598784Y-106066339D01*
X154472076Y-105885380D01*
X154315870Y-105729174D01*
X154315866Y-105729171D01*
X154315865Y-105729170D01*
X154134916Y-105602468D01*
X154134908Y-105602464D01*
X154006061Y-105542382D01*
X153953621Y-105496210D01*
X153934469Y-105429017D01*
X153954685Y-105362135D01*
X154006061Y-105317618D01*
X154012052Y-105314824D01*
X154134912Y-105257534D01*
X154315870Y-105130826D01*
X154472076Y-104974620D01*
X154598784Y-104793662D01*
X154692144Y-104593450D01*
X154749320Y-104380068D01*
X154768573Y-104160000D01*
X154749320Y-103939932D01*
X154692144Y-103726550D01*
X154598784Y-103526339D01*
X154472076Y-103345380D01*
X154315870Y-103189174D01*
X154315866Y-103189171D01*
X154315865Y-103189170D01*
X154134916Y-103062468D01*
X154134908Y-103062464D01*
X154006061Y-103002382D01*
X153953621Y-102956210D01*
X153934469Y-102889017D01*
X153954685Y-102822135D01*
X154006061Y-102777618D01*
X154012052Y-102774824D01*
X154134912Y-102717534D01*
X154315870Y-102590826D01*
X154472076Y-102434620D01*
X154598784Y-102253662D01*
X154692144Y-102053450D01*
X154749320Y-101840068D01*
X154768573Y-101620000D01*
X154749320Y-101399932D01*
X154692144Y-101186550D01*
X154598784Y-100986339D01*
X154472076Y-100805380D01*
X154315870Y-100649174D01*
X154315866Y-100649171D01*
X154315865Y-100649170D01*
X154134916Y-100522468D01*
X154134908Y-100522464D01*
X154006061Y-100462382D01*
X153953621Y-100416210D01*
X153934469Y-100349017D01*
X153954685Y-100282135D01*
X154006061Y-100237618D01*
X154012052Y-100234824D01*
X154134912Y-100177534D01*
X154315870Y-100050826D01*
X154472076Y-99894620D01*
X154598784Y-99713662D01*
X154692144Y-99513450D01*
X154749320Y-99300068D01*
X154768573Y-99080000D01*
X154749320Y-98859932D01*
X154692144Y-98646550D01*
X154598784Y-98446339D01*
X154472076Y-98265380D01*
X154315870Y-98109174D01*
X154315866Y-98109171D01*
X154315865Y-98109170D01*
X154134916Y-97982468D01*
X154134908Y-97982464D01*
X154006061Y-97922382D01*
X153953621Y-97876210D01*
X153934469Y-97809017D01*
X153954685Y-97742135D01*
X154006061Y-97697618D01*
X154019681Y-97691267D01*
X154134912Y-97637534D01*
X154315870Y-97510826D01*
X154472076Y-97354620D01*
X154598784Y-97173662D01*
X154692144Y-96973450D01*
X154749320Y-96760068D01*
X154768573Y-96540000D01*
X154768393Y-96537948D01*
X154749320Y-96319937D01*
X154749320Y-96319932D01*
X154692144Y-96106550D01*
X154598784Y-95906339D01*
X154528222Y-95805565D01*
X154472077Y-95725381D01*
X154408055Y-95661359D01*
X154315870Y-95569174D01*
X154315866Y-95569171D01*
X154315865Y-95569170D01*
X154134916Y-95442468D01*
X154134908Y-95442464D01*
X154006061Y-95382382D01*
X153953621Y-95336210D01*
X153934469Y-95269017D01*
X153954685Y-95202135D01*
X154006061Y-95157618D01*
X154012052Y-95154824D01*
X154134912Y-95097534D01*
X154315870Y-94970826D01*
X154472076Y-94814620D01*
X154598784Y-94633662D01*
X154692144Y-94433450D01*
X154749320Y-94220068D01*
X154768573Y-94000000D01*
X154749320Y-93779932D01*
X154730071Y-93708095D01*
X154731732Y-93638245D01*
X154762162Y-93588321D01*
X158368713Y-89981771D01*
X158368716Y-89981770D01*
X158480520Y-89869966D01*
X158530639Y-89783154D01*
X158559577Y-89733035D01*
X158600500Y-89580308D01*
X158600500Y-89580299D01*
X158601561Y-89572248D01*
X158603412Y-89572491D01*
X158620185Y-89515373D01*
X158627555Y-89505097D01*
X158629810Y-89502267D01*
X158629816Y-89502262D01*
X158725789Y-89349522D01*
X158785368Y-89179255D01*
X158805565Y-89000000D01*
X158805564Y-88999995D01*
X158785369Y-88820750D01*
X158785368Y-88820745D01*
X158725788Y-88650476D01*
X158629815Y-88497737D01*
X158502262Y-88370184D01*
X158349523Y-88274211D01*
X158179254Y-88214631D01*
X158179249Y-88214630D01*
X158000004Y-88194435D01*
X157999996Y-88194435D01*
X157919439Y-88203511D01*
X157850617Y-88191456D01*
X157799238Y-88144107D01*
X157781614Y-88076496D01*
X157803341Y-88010091D01*
X157817871Y-87992614D01*
X158381770Y-87428716D01*
X158460827Y-87291784D01*
X158501751Y-87139057D01*
X158501751Y-86980942D01*
X158501751Y-86973347D01*
X158501750Y-86973329D01*
X158501750Y-74949059D01*
X158501751Y-74949046D01*
X158501751Y-74780945D01*
X158501751Y-74780943D01*
X158460827Y-74628215D01*
X158409461Y-74539247D01*
X158381770Y-74491284D01*
X158269966Y-74379480D01*
X158269965Y-74379479D01*
X158265635Y-74375149D01*
X158265624Y-74375139D01*
X157712564Y-73822079D01*
X157679079Y-73760756D01*
X157680980Y-73700460D01*
X157686365Y-73681536D01*
X157706893Y-73460000D01*
X157686365Y-73238464D01*
X157625479Y-73024472D01*
X157625474Y-73024461D01*
X157526311Y-72825316D01*
X157526306Y-72825308D01*
X157392229Y-72647761D01*
X157227812Y-72497876D01*
X157227810Y-72497874D01*
X157038654Y-72380754D01*
X157038648Y-72380752D01*
X156831190Y-72300382D01*
X156612493Y-72259500D01*
X156390007Y-72259500D01*
X156171310Y-72300382D01*
X156040114Y-72351207D01*
X155963851Y-72380752D01*
X155963845Y-72380754D01*
X155774689Y-72497874D01*
X155774687Y-72497876D01*
X155610270Y-72647761D01*
X155476193Y-72825308D01*
X155476188Y-72825316D01*
X155377025Y-73024461D01*
X155377019Y-73024476D01*
X155316135Y-73238462D01*
X155316134Y-73238464D01*
X155295607Y-73459999D01*
X155295607Y-73460000D01*
X155316134Y-73681535D01*
X155316135Y-73681537D01*
X155377019Y-73895523D01*
X155377025Y-73895538D01*
X155476188Y-74094683D01*
X155476193Y-74094691D01*
X155610270Y-74272238D01*
X155774687Y-74422123D01*
X155774689Y-74422125D01*
X155963845Y-74539245D01*
X155963846Y-74539245D01*
X155963849Y-74539247D01*
X156171310Y-74619618D01*
X156390007Y-74660500D01*
X156390009Y-74660500D01*
X156612491Y-74660500D01*
X156612493Y-74660500D01*
X156750465Y-74634708D01*
X156819980Y-74641739D01*
X156860931Y-74668916D01*
X157264431Y-75072416D01*
X157297916Y-75133739D01*
X157300750Y-75160097D01*
X157300750Y-77400415D01*
X157281065Y-77467454D01*
X157228261Y-77513209D01*
X157159103Y-77523153D01*
X157111473Y-77505842D01*
X157038654Y-77460754D01*
X157038648Y-77460752D01*
X156831190Y-77380382D01*
X156612493Y-77339500D01*
X156390007Y-77339500D01*
X156171310Y-77380382D01*
X156096476Y-77409373D01*
X155963851Y-77460752D01*
X155963845Y-77460754D01*
X155774689Y-77577874D01*
X155774687Y-77577876D01*
X155610270Y-77727761D01*
X155487583Y-77890227D01*
X155431474Y-77931863D01*
X155388629Y-77939500D01*
X154546670Y-77939500D01*
X154546654Y-77939499D01*
X154539058Y-77939499D01*
X154380943Y-77939499D01*
X154304579Y-77959961D01*
X154228214Y-77980423D01*
X154228209Y-77980426D01*
X154091290Y-78059475D01*
X154091286Y-78059478D01*
X153867892Y-78282871D01*
X153806569Y-78316355D01*
X153736877Y-78311371D01*
X153680944Y-78269499D01*
X153660945Y-78229123D01*
X153625480Y-78104476D01*
X153625479Y-78104472D01*
X153625474Y-78104461D01*
X153526311Y-77905316D01*
X153526306Y-77905308D01*
X153392229Y-77727761D01*
X153227812Y-77577876D01*
X153227810Y-77577874D01*
X153038654Y-77460754D01*
X153038648Y-77460752D01*
X152831190Y-77380382D01*
X152612493Y-77339500D01*
X152390007Y-77339500D01*
X152171310Y-77380382D01*
X152096476Y-77409373D01*
X151963851Y-77460752D01*
X151963845Y-77460754D01*
X151774689Y-77577874D01*
X151774687Y-77577876D01*
X151610270Y-77727761D01*
X151487583Y-77890227D01*
X151431474Y-77931863D01*
X151388629Y-77939500D01*
X142910098Y-77939500D01*
X142843059Y-77919815D01*
X142822417Y-77903181D01*
X142258736Y-77339500D01*
X141650376Y-76731141D01*
X141616892Y-76669819D01*
X141617852Y-76613024D01*
X141663557Y-76432544D01*
X141682826Y-76200000D01*
X141677328Y-76133651D01*
X141663558Y-75967464D01*
X141663556Y-75967452D01*
X141606275Y-75741255D01*
X141512543Y-75527569D01*
X141384920Y-75332226D01*
X141304305Y-75244655D01*
X143553750Y-75244655D01*
X143553750Y-75950000D01*
X144406993Y-75950000D01*
X144397479Y-75966479D01*
X144356250Y-76120350D01*
X144356250Y-76279650D01*
X144397479Y-76433521D01*
X144406993Y-76450000D01*
X143553750Y-76450000D01*
X143553750Y-77155344D01*
X143560151Y-77214872D01*
X143560153Y-77214879D01*
X143610395Y-77349586D01*
X143610399Y-77349593D01*
X143696559Y-77464687D01*
X143696562Y-77464690D01*
X143811656Y-77550850D01*
X143811663Y-77550854D01*
X143946370Y-77601096D01*
X143946377Y-77601098D01*
X144005905Y-77607499D01*
X144005922Y-77607500D01*
X144711250Y-77607500D01*
X144711250Y-76754256D01*
X144727729Y-76763771D01*
X144881600Y-76805000D01*
X145040900Y-76805000D01*
X145194771Y-76763771D01*
X145211250Y-76754256D01*
X145211250Y-77607500D01*
X145916578Y-77607500D01*
X145916594Y-77607499D01*
X145976122Y-77601098D01*
X145976129Y-77601096D01*
X146110836Y-77550854D01*
X146110843Y-77550850D01*
X146225937Y-77464690D01*
X146225940Y-77464687D01*
X146312100Y-77349593D01*
X146312105Y-77349584D01*
X146337714Y-77280923D01*
X146379585Y-77224989D01*
X146445049Y-77200571D01*
X146513322Y-77215422D01*
X146540194Y-77236417D01*
X146540599Y-77235979D01*
X146544365Y-77239446D01*
X146544369Y-77239450D01*
X146544372Y-77239452D01*
X146544375Y-77239455D01*
X146728503Y-77382768D01*
X146728507Y-77382771D01*
X146728509Y-77382772D01*
X146728512Y-77382774D01*
X146847810Y-77447334D01*
X146933724Y-77493828D01*
X147154422Y-77569594D01*
X147384580Y-77608000D01*
X147617920Y-77608000D01*
X147848078Y-77569594D01*
X148068776Y-77493828D01*
X148273993Y-77382771D01*
X148458131Y-77239450D01*
X148616168Y-77067776D01*
X148743793Y-76872431D01*
X148837525Y-76658744D01*
X148894807Y-76432544D01*
X148914076Y-76200000D01*
X148908578Y-76133651D01*
X148894808Y-75967464D01*
X148894806Y-75967452D01*
X148837525Y-75741255D01*
X148743793Y-75527569D01*
X148616170Y-75332226D01*
X148535555Y-75244655D01*
X148458131Y-75160550D01*
X148458126Y-75160546D01*
X148458124Y-75160544D01*
X148273996Y-75017231D01*
X148273987Y-75017225D01*
X148068782Y-74906175D01*
X148068779Y-74906174D01*
X148068776Y-74906172D01*
X148068770Y-74906170D01*
X148068768Y-74906169D01*
X147848080Y-74830406D01*
X147617920Y-74792000D01*
X147384580Y-74792000D01*
X147154419Y-74830406D01*
X146933731Y-74906169D01*
X146933717Y-74906175D01*
X146728512Y-75017225D01*
X146728503Y-75017231D01*
X146544375Y-75160544D01*
X146540599Y-75164021D01*
X146539670Y-75163012D01*
X146485209Y-75195725D01*
X146415372Y-75193608D01*
X146357765Y-75154070D01*
X146337714Y-75119077D01*
X146312104Y-75050413D01*
X146312100Y-75050406D01*
X146225940Y-74935312D01*
X146225937Y-74935309D01*
X146110843Y-74849149D01*
X146110836Y-74849145D01*
X145976129Y-74798903D01*
X145976122Y-74798901D01*
X145916594Y-74792500D01*
X145211250Y-74792500D01*
X145211250Y-75645743D01*
X145194771Y-75636229D01*
X145040900Y-75595000D01*
X144881600Y-75595000D01*
X144727729Y-75636229D01*
X144711250Y-75645743D01*
X144711250Y-74792500D01*
X144005905Y-74792500D01*
X143946377Y-74798901D01*
X143946370Y-74798903D01*
X143811663Y-74849145D01*
X143811656Y-74849149D01*
X143696562Y-74935309D01*
X143696559Y-74935312D01*
X143610399Y-75050406D01*
X143610395Y-75050413D01*
X143560153Y-75185120D01*
X143560151Y-75185127D01*
X143553750Y-75244655D01*
X141304305Y-75244655D01*
X141226881Y-75160550D01*
X141226876Y-75160546D01*
X141226874Y-75160544D01*
X141042746Y-75017231D01*
X141042737Y-75017225D01*
X140837532Y-74906175D01*
X140837529Y-74906174D01*
X140837526Y-74906172D01*
X140837520Y-74906170D01*
X140837518Y-74906169D01*
X140616830Y-74830406D01*
X140386670Y-74792000D01*
X140153330Y-74792000D01*
X139923169Y-74830406D01*
X139702481Y-74906169D01*
X139702467Y-74906175D01*
X139497262Y-75017225D01*
X139497253Y-75017231D01*
X139313125Y-75160544D01*
X139309349Y-75164021D01*
X139308420Y-75163012D01*
X139253959Y-75195725D01*
X139184122Y-75193608D01*
X139126515Y-75154070D01*
X139106464Y-75119077D01*
X139080854Y-75050413D01*
X139080850Y-75050406D01*
X138994690Y-74935312D01*
X138994687Y-74935309D01*
X138879593Y-74849149D01*
X138879586Y-74849145D01*
X138744879Y-74798903D01*
X138744872Y-74798901D01*
X138685344Y-74792500D01*
X137980000Y-74792500D01*
X137980000Y-75645743D01*
X137963521Y-75636229D01*
X137809650Y-75595000D01*
X137650350Y-75595000D01*
X137496479Y-75636229D01*
X137480000Y-75645743D01*
X137480000Y-74792500D01*
X136774655Y-74792500D01*
X136715127Y-74798901D01*
X136715120Y-74798903D01*
X136580413Y-74849145D01*
X136580406Y-74849149D01*
X136465312Y-74935309D01*
X136465309Y-74935312D01*
X136379149Y-75050406D01*
X136379145Y-75050413D01*
X136328903Y-75185120D01*
X136328901Y-75185127D01*
X136322500Y-75244655D01*
X118625665Y-75244655D01*
X118590827Y-75160547D01*
X118587966Y-75153640D01*
X118456339Y-74938846D01*
X118456338Y-74938843D01*
X118419375Y-74895566D01*
X118292724Y-74747276D01*
X118143255Y-74619617D01*
X118101156Y-74583661D01*
X118101153Y-74583660D01*
X117886359Y-74452033D01*
X117653610Y-74355626D01*
X117408651Y-74296817D01*
X117157500Y-74277051D01*
X116906348Y-74296817D01*
X116661389Y-74355626D01*
X116428640Y-74452033D01*
X116213846Y-74583660D01*
X116213843Y-74583661D01*
X116022276Y-74747276D01*
X115858661Y-74938843D01*
X115858660Y-74938846D01*
X115727033Y-75153640D01*
X115630626Y-75386389D01*
X115571817Y-75631348D01*
X115552051Y-75882500D01*
X99712949Y-75882500D01*
X99693183Y-75631352D01*
X99634373Y-75386389D01*
X99540827Y-75160547D01*
X99537966Y-75153640D01*
X99406339Y-74938846D01*
X99406338Y-74938843D01*
X99369375Y-74895566D01*
X99242724Y-74747276D01*
X99093255Y-74619617D01*
X99051156Y-74583661D01*
X99051153Y-74583660D01*
X98836359Y-74452033D01*
X98603610Y-74355626D01*
X98358651Y-74296817D01*
X98107500Y-74277051D01*
X97856348Y-74296817D01*
X97611389Y-74355626D01*
X97378640Y-74452033D01*
X97163846Y-74583660D01*
X97163843Y-74583661D01*
X96972276Y-74747276D01*
X96808661Y-74938843D01*
X96808660Y-74938846D01*
X96677033Y-75153640D01*
X96580626Y-75386389D01*
X96521817Y-75631348D01*
X96502051Y-75882500D01*
X86100500Y-75882500D01*
X86100500Y-73459999D01*
X151295607Y-73459999D01*
X151295607Y-73460000D01*
X151316134Y-73681535D01*
X151316135Y-73681537D01*
X151377019Y-73895523D01*
X151377025Y-73895538D01*
X151476188Y-74094683D01*
X151476193Y-74094691D01*
X151610270Y-74272238D01*
X151774687Y-74422123D01*
X151774689Y-74422125D01*
X151963845Y-74539245D01*
X151963846Y-74539245D01*
X151963849Y-74539247D01*
X152171310Y-74619618D01*
X152390007Y-74660500D01*
X152390009Y-74660500D01*
X152612491Y-74660500D01*
X152612493Y-74660500D01*
X152831190Y-74619618D01*
X153038651Y-74539247D01*
X153227812Y-74422124D01*
X153392231Y-74272236D01*
X153526308Y-74094689D01*
X153625479Y-73895528D01*
X153686365Y-73681536D01*
X153706893Y-73460000D01*
X153686365Y-73238464D01*
X153625479Y-73024472D01*
X153625474Y-73024461D01*
X153526311Y-72825316D01*
X153526306Y-72825308D01*
X153392229Y-72647761D01*
X153227812Y-72497876D01*
X153227810Y-72497874D01*
X153038654Y-72380754D01*
X153038648Y-72380752D01*
X152831190Y-72300382D01*
X152612493Y-72259500D01*
X152390007Y-72259500D01*
X152171310Y-72300382D01*
X152040114Y-72351207D01*
X151963851Y-72380752D01*
X151963845Y-72380754D01*
X151774689Y-72497874D01*
X151774687Y-72497876D01*
X151610270Y-72647761D01*
X151476193Y-72825308D01*
X151476188Y-72825316D01*
X151377025Y-73024461D01*
X151377019Y-73024476D01*
X151316135Y-73238462D01*
X151316134Y-73238464D01*
X151295607Y-73459999D01*
X86100500Y-73459999D01*
X86100500Y-71424500D01*
X86120185Y-71357461D01*
X86172989Y-71311706D01*
X86224500Y-71300500D01*
X159376000Y-71300500D01*
X159443039Y-71320185D01*
G37*
%TD.AperFunction*%
%TD*%
M02*
